<svg xmlns="http://www.w3.org/2000/svg" version="1.0" viewBox="0 0 1053 227"><g fill="#FFF" stroke-width="0"><path d="M175 113.5V189h702V38H175zm359.6-46.7c1.2.6 2.7 2.5 3.2 4.2.7 1.9 1.8 3 2.9 3 4.5 0 5.8 5.8 2.1 9.7-2 2.1-3 2.3-12 2.3H521v16.9l5.3.3c4.7.3 5.3.6 6.7 3.3.8 1.7 2.8 3.7 4.5 4.5 2.2 1.1 3.1 2.3 3.3 4.6.5 5-2.6 6.8-11.9 7.3-9.1.4-8.5-.8-7.3 13.4l.7 7.7 5.1-.6c4.3-.5 5.5-.3 7.9 1.6 1.5 1.2 2.7 3 2.7 4 0 1.1.8 2 2.1 2.2 1.2.2 3.1 1.5 4.2 3 1.7 2.3 1.9 3.1.9 5.3-.7 1.4-2.3 3-3.8 3.5-3.4 1.3-27 1.3-29.5 0-1-.6-2.6-2.4-3.4-4-.9-1.7-2.1-3-2.9-3-1.9 0-4.5-3.2-5.5-6.7-.5-1.7-1.1-20.2-1.2-41-.4-40.7-.5-40.2 4.6-42.4 2.8-1.3 28.5-.5 31.1.9m79.3-1.2c2.8.6 4.1 1.6 9.2 7.1.9 1 2.9 2.8 4.3 4 3 2.5 3.4 6.7.9 9.5-2 2.2-8.1 2.4-10.9.3-1-.8-3.5-1.5-5.6-1.5-7 0-11.4 8.8-12.5 25.2l-.6 8.7 3.4-.9c1.9-.6 6-1 9.3-1 5.7 0 6 .1 10.8 5 2.7 2.7 5.3 5 5.8 5 .4 0 1.8 1.9 2.9 4.3 1.7 3.5 2.1 6.2 2.1 14.3 0 11.9-1.2 16.8-4.6 19.1-2.2 1.4-3.2 1.5-7 .5-2.4-.7-6.2-1.2-8.4-1.2-5.1 0-13.7-1.8-17.5-3.7-5.2-2.6-15.2-13.6-16.4-18.1-1.8-6.3-3.1-39.3-1.9-47.5 1.3-9.8 5.6-18.4 11.9-24.1 2.7-2.4 6.2-4.7 7.7-4.9 4.6-.7 13.8-.7 17.1-.1m-330.4 2.6c1.6.7 2.8 2.3 3.2 4 .3 1.8 1.2 2.8 2.3 2.8.9 0 2.5.9 3.5 2 2.5 2.8 3.7 22.7 3.3 57.7-.3 24.9-.4 26.3-2.3 27.8-1.2.9-3.6 1.4-6 1.2-3.2-.2-4.3-.8-6-3.4-1.1-1.7-3-3.4-4.2-3.7-1.2-.4-2.7-1.5-3.3-2.6-1.4-2.5-2.1-80.7-.8-83.3 1.7-3.3 6.2-4.4 10.3-2.5m36.4 2.5c.8 1.8 2.1 3.3 2.8 3.3s2.2.9 3.3 2c2 2 2 2.8 1.3 35.1l-.6 33.1 5.9-.6c7.2-.8 10.8.7 11.2 4.6.2 2.1.9 2.8 3 3 1.6.2 3.2 1.3 4.1 3 1.4 2.4 1.4 2.8-.3 4.7-2.9 3.2-10.8 5.1-21.4 5.1h-9.4l-4.5-4.3c-2.5-2.3-5.6-5.2-6.9-6.3-4.7-4.4-5.8-11.8-5-33.9.4-11 1.1-26.5 1.6-34.4 1.2-17.1 1.8-18.4 8.9-17.9 4.1.3 4.8.7 6 3.5m49.6-.3c.9 2.2 2.3 3.6 4 4 1.4.4 3 1.7 3.6 2.9.6 1.4.7 11.1.2 28.2-.4 14.3-.7 28.9-.5 32.3l.3 6.4 5.7-.6c6.9-.8 10.6.7 11 4.6.2 2.1.9 2.8 3 3 3.3.4 5.5 4.3 4.1 7.1-1.8 3.3-7.7 5-19.6 5.5-10.2.4-11.4.3-14.2-1.7-1.6-1.2-3.3-3-3.6-4.1-.4-1.1-1.2-2-1.9-2-2.2 0-5.7-4.6-7.2-9.5-.8-2.8-1.4-9-1.4-14.4 0-11.6 1.9-54.3 2.6-58.8.7-4.6 2.8-6.3 8-6.3 4.2 0 4.6.3 5.9 3.4m78.5 3.4c7.9 7.9 7.7 7.3 11.9 32.7 6.4 38 8.2 51.5 7.1 53.5-1.2 2.3-4.4 3.3-9.1 2.8-2.7-.2-3.7-1-4.9-3.5-.8-1.8-2.2-3.3-3.1-3.3-2.7 0-4.9-3.5-5.8-8.9-.4-2.8-1.1-5.4-1.4-5.7s-3.2-.8-6.5-1.1l-6-.6-1 5.4c-.6 3-1.4 7.8-1.7 10.7-.8 6.1-3 8.2-8.7 8.2-3.8 0-6.8-2-6.8-4.6 0-.8-1.4-2-3-2.6-1.7-.5-3.5-1.8-4-2.8-2.1-4-1-15.2 3-30.5 2.2-8.3 5.4-20.4 7.1-27C420.8 74.3 426 67 436.3 67c4.6 0 5.1.3 11.7 6.8m286.7-4.9c5.3 2.5 18.8 15.7 20.8 20.4.8 2 1.5 5.2 1.5 7 0 4.2-4 12-8.7 16.9l-3.6 3.7 4.1 4.3c4.5 4.6 7.8 12.8 10.7 26.6 2.7 13.1 1.7 16.1-5.4 16.2-3.6 0-8.1-3.1-8.1-5.7 0-.7-.6-1.3-1.3-1.3-3.5 0-6-5-8.8-17.6-1.6-7-3.3-13.2-3.7-13.6-.9-.9-2.2 15.1-2.2 26.1 0 6.5-1.7 9.7-5.8 10.6-4.4.9-8.1-1-8.8-4.5-.5-2-1.2-3-2.5-3-.9 0-2.5-.7-3.3-1.6-1.4-1.3-1.6-6-1.6-35.9V83.1l-2.1-.3c-2.9-.4-6.2-4.9-5.3-7.1.8-2.1 7.1-5.5 13.4-7.3 6.9-1.9 15.8-1.7 20.7.5m47.8.6c1.4 1.3 2.5 3.1 2.5 4 0 .8.8 1.5 1.8 1.5 1.1 0 2.7.9 3.8 2.1 1.8 2 1.9 4.4 2.2 42.8.3 40.5.3 40.6-1.9 42.3-3 2.5-8.4 2.3-10.9-.4-1.1-1.2-2-2.7-2-3.4 0-.6-1.2-1.5-2.6-1.8-5.1-1.3-5.4-4-5.4-45.6 0-25.1.4-38.8 1.1-40.1 2.2-4.2 8-4.9 11.4-1.4m-525.6.2c1.2 1 2.3 2.8 2.4 4 .1 1.6.8 2.3 2.1 2.3 2.5 0 5.6 2.8 5.6 5.1 0 1-.9 4.1-2 6.8-2.8 7.1-9.3 32.9-13 50.9-1.8 9-4.1 17.4-5.5 20.3-2.5 4.9-2.5 4.9-7.6 4.9-4.1 0-5.4-.5-7.4-2.6-2.7-3-3-3.3-7.1-7.1-3.3-3-4.2-6.3-11.9-42.3-1.9-9.1-4.6-20.6-6-25.5-3.1-11.3-3.1-12.9.1-15.4 3.9-3.1 7.7-2.7 10.8 1 1.4 1.7 2.6 3.5 2.6 4s.5.9 1.2.9c.6 0 2.2.9 3.4 2.1 1.7 1.6 3.1 5.7 5.5 16 1.8 7.7 3.6 13.4 4 12.7s1.9-6.9 3.4-13.7c3-14 5.3-20 8.9-23.6 3-3 7.4-3.3 10.5-.8m590.4-.5c1 .5 2.3 2.3 2.9 3.9.6 1.8 1.7 2.9 2.9 2.9 2.6 0 5.3 4.4 4.5 7.5-.8 3.3-5.4 5.5-11.4 5.5h-4.9l-.6 15.7c-.4 8.7-.7 24.8-.7 35.7 0 22.3-.4 23.6-6.6 23.6-3.5 0-5.9-1.7-6.9-5-.3-1.1-1.5-2-2.5-2-1.1 0-2.8-1.2-3.7-2.7-1.6-2.5-1.8-5.4-1.5-33.9l.4-31.1-2.9-.8c-3.7-.9-5.3-2.3-5.3-4.7 0-1.2-1.1-2.3-3.1-3-5.8-2-5.6-9.4.4-11.8 2.9-1.2 36.6-.9 39 .2m-158.9 1.4c.9.8 1.6 2.3 1.6 3.3 0 1.2 1.1 2.1 3.2 2.7 2.3.7 3.4 1.7 3.9 3.7 1 3.9-.8 66.3-2.1 70.9-1.6 5.7-5.4 9.6-11.3 11.3-6.5 1.9-17.7 1.9-22.4 0-5-2.1-16-13.8-17.3-18.4-.6-2.1-1-17.5-1-36.7V74.3l2.3-1.2c1.3-.7 4.1-1.1 6.3-.9 3.2.2 4.1.8 5.2 3.3.8 1.7 2.7 3.7 4.3 4.4 2 .9 3.2 2.4 3.9 4.9.6 2.1 1 15.8 1 31.9 0 29.8.1 30.2 4.4 27 2.6-1.9 3.5-8.2 3.6-23.8 0-7.5.3-21.2.7-30.4.5-14.4.9-17.1 2.5-18.7 2.3-2.3 9-2.4 11.2-.2"/><path d="M503.4 70.5c-1.5 2.4-1.6 6-1 39.8.8 38.4 1.2 41.6 5.1 43.1.9.3 6.5.6 12.5.6 9.1 0 11.1-.3 13.1-1.9 2.4-1.9 2.4-1.9.4-4.1-1.8-1.9-2.6-2-10.9-1.5-5 .3-9.6.2-10.2-.2-.7-.5-1.4-7-1.9-17.1l-.7-16.2 6.9-.1c9.2-.2 12.7-1 13.1-3.2.7-3.7-1.6-4.7-10.9-4.7H510V76h10.4c10.8 0 13.6-1 13.6-4.6 0-2.5-4.7-3.4-17-3.4-11.7 0-12 .1-13.6 2.5m93.1-1.1c-7.1 3.2-13.7 14.1-15.8 26.1-.8 4.6-.8 11.6 0 25.5 1.3 20.5 2.3 24.6 7.3 28.2 3.4 2.4 13.3 4.8 20 4.8 3 0 6.1.4 6.9.9.7.5 2.2.6 3.2.4 2.9-.8 4.2-7.4 3.7-19.2-.4-10.2-.4-10.4-3.6-13.2-4-3.6-10.2-4.2-16.4-1.7-5.6 2.1-2.6 5.8 4.7 5.8 2.8 0 5.6.5 6.3 1.2 1.4 1.4 1.6 12.6.2 16.2-.9 2.4-1.4 2.6-7.3 2.6-7.7 0-12.2-2.5-15.2-8.5-1.8-3.6-2-6-2-24 0-17 .3-21 2-26.4 3.6-11.9 11.5-16.7 19.9-12.2 4.8 2.5 5.9 2.6 7.6.6s.3-5.3-3-7c-3.6-1.9-14.4-1.9-18.5-.1"/><path d="M599.3 134.8c.8 7.6 1.4 9.1 4.2 9.8 4.2 1.1 6.5-.4 6.5-4.1 0-2.7-.4-3.4-2.2-3.7-1.3-.2-3.2-1.7-4.3-3.5q-5.25-8.55-4.2 1.5M277.7 71.2c-1.6 1.2-1.7 4.2-1.5 41.1.3 42.6.3 42.1 5.3 41.5 2-.3 2-1.1 2.2-39.3.2-29.5 0-39.6-1-41.4-1.5-3-2.8-3.5-5-1.9m32.9 0c-1 1.6-1.8 9.5-2.7 27.3-2.2 39.2-1.6 47.9 3.6 53.1 2.1 2.1 3.3 2.4 10.3 2.4 7.8 0 17.5-2.1 18.7-4.1.4-.5.1-1.6-.5-2.4-.9-1.1-3.4-1.3-12.7-.8l-11.6.6.6-38c.4-27.7.3-38.3-.6-39.2-1.7-1.7-3.5-1.3-5.1 1.1m50.1-.8c-1 1.1-1.6 5.4-2.1 15.8-.4 7.9-1.2 20.8-1.7 28.8-1.3 16.7-.7 26.5 2 32.6 2.6 5.9 4.7 6.7 15.5 6.2 10.1-.5 15.1-2.2 15.1-5.3 0-1.9-.6-2-11.6-1.6l-11.7.3-.7-9.8c-.4-5.5-.3-20.7.4-33.9 1.4-30.4 1.4-31-.5-32.9-1.9-2-2.9-2-4.7-.2m71.5.3c-3.9 1.9-8.5 9.2-10.6 16.8-13.3 47-15.4 56.8-13.7 62.6.9 3.1 1.7 3.9 3.5 3.9 3.1 0 4.2-1.6 5.1-7 .3-2.5 1.1-7.3 1.7-10.8l1-6.2h4.2c2.4 0 8.4.3 13.3.6l9.1.7 1.2 9.1c1.4 10.7 2.3 12.6 5.4 12.6 3.6 0 4.5-1.8 3.6-8-4.8-33.1-10.7-66.5-12.4-69.7-2.8-5.5-6.5-7-11.4-4.6m4.6 8.5c1.6 2.1 4 13.5 5.7 27.8.9 7.4 1.9 14.3 2.1 15.2.5 1.6-.5 1.8-11.6 1.8h-12.2l.7-4.3c1.6-9 7.6-31.3 9.9-36.4 2.5-5.4 3.6-6.2 5.4-4.1"/><path d="M437.1 109c-2.6 9.3-3 11.4-2.7 11.8.2.2 1.7.2 3.3 0l2.8-.3-1.1-8-1-8zM721 69.7c-5.1.9-14.9 4.5-16 5.9-1.8 2.1.5 4.4 4.2 4.4h3.1l-.4 35.5c-.3 30.8-.2 35.7 1.1 36.5 1 .6 2.2.5 3.5-.4 1.8-1.2 2.1-2.9 2.7-19.6.4-10.1.9-18.5 1.1-18.6.7-.7 11.3 3.8 12.4 5.3 2.2 2.9 5.4 12.4 7.4 22.2 2 9.7 3.8 13.1 7.1 13.1 2.7 0 3.2-2.5 1.9-9.5-3.3-17.9-8-28.4-14.7-32.6l-3.4-2.1 4.9-4.4c6.3-5.7 10.6-14 9.7-18.8-1.9-9.9-14.7-18.7-24.6-16.9m10.7 9c5.8 2.7 8 10.6 4.7 16.3-1.9 3.1-11.8 10-14.5 10-1.9 0-2.6-4.3-3.2-20.3l-.2-7.7h4.8c2.7 0 6.5.8 8.4 1.7"/><path d="m730 92.2.1 5.3 1.9-2.4c2.7-3.2 2.7-8.1 0-8.1-1.8 0-2 .7-2 5.2m45.8-21.1c-1.7.9-1.8 3.9-1.8 40.3 0 42.8.1 43.5 5.3 42.2l2.7-.6v-38.8c0-38.6-.4-42.9-3.5-43.8-.5-.2-1.8.1-2.7.7m-527.1 1.7c-.9 1-2.3 3.7-3.1 6-1.4 4-11.7 46.5-13.1 54.4-1.3 6.8-2.9 4.2-5.3-8.5-3.2-17-10.1-45.5-12-49.5-1.1-2.3-2.1-3.2-3.5-3-3.9.6-4.3 3.2-1.9 12 1.2 4.6 3.8 15.5 5.8 24.3 7.8 35.7 8.8 39.7 10.6 42.5 1.3 2.2 2.5 3 4.7 3 2.5 0 3.3-.7 5-4.3 1.1-2.4 3.4-10.9 5.1-19 3.8-18.9 10.6-45.4 13.2-51.7 1.7-4.1 1.8-5.3.8-6.5-1.7-2-4.3-1.9-6.3.3m560.6-.3c-2.7 1.9-2.8 2.8-.7 4.9 1.1 1.1 3.5 1.6 8 1.6h6.5l-.3 36.4c-.3 38.5-.1 40.5 4 38 1.5-1 1.7-3 1.7-15 .1-7.7.5-24.1.9-36.5l.8-22.6 7-.5c7.9-.6 11.1-2.5 9.2-5.6-1-1.5-3.3-1.7-18-2-14.1-.2-17.3 0-19.1 1.3m-128.9-.1c-1.5 1.1-1.8 5.2-2.6 34.2-.9 35.8-1.4 38.5-6.5 40.5-1.6.6-5 .9-7.7.6-8.6-.8-8.6-.6-8.8-32.1-.1-14.9-.1-28.5-.1-30.1.3-4.5-1.5-10.2-3.4-10.9-.9-.4-2.4.1-3.5 1.1-1.9 1.7-1.9 3.2-1.6 33.8.3 30.1.4 32.2 2.4 36 3.8 7.3 14.7 10.5 25.6 7.5 4.4-1.3 9.5-6.8 10.3-11.2.7-4.2 2.2-63.4 1.7-67-.5-3-3.3-4.2-5.8-2.4"/></g><path fill="#BFBFBF" d="M507.3 65.7c1.5.2 3.9.2 5.5 0 1.5-.2.2-.4-2.8-.4s-4.3.2-2.7.4m18.5 0c.7.3 1.6.2 1.9-.1.4-.3-.2-.6-1.3-.5-1.1 0-1.4.3-.6.6M500.5 68c-1 1.1-1.6 2.2-1.4 2.4s1.2-.7 2.2-2c2.2-2.9 1.7-3.2-.8-.4m93-1c-.3.6.1.7.9.4 1.8-.7 2.1-1.4.7-1.4-.6 0-1.3.4-1.6 1m21.5-.6c0 .2.7.7 1.6 1 .8.3 1.2.2.9-.4-.6-1-2.5-1.4-2.5-.6m-336.2 1.3c.6.2 1.8.2 2.5 0 .6-.3.1-.5-1.3-.5s-1.9.2-1.2.5m38.2-.3c0 .2.8 1 1.8 1.7 1.5 1.3 1.6 1.2.3-.4s-2.1-2.1-2.1-1.3m459.8.3c.6.2 1.8.2 2.5 0 .6-.3.1-.5-1.3-.5s-1.9.2-1.2.5m-502.9 2c-1.3 1.6-1.2 1.7.4.4.9-.7 1.7-1.5 1.7-1.7 0-.8-.8-.3-2.1 1.3m169.6.3c1 1.1 2 2 2.3 2s-.3-.9-1.3-2-2-2-2.3-2 .3.9 1.3 2m59.5-.5c-.7.9-1.1 1.7-.9 2 .3.2 1-.5 1.7-1.5 1.4-2.4 1-2.6-.8-.5m268.9.2c-1.3 1.6-1.2 1.7.4.4s2.1-2.1 1.3-2.1c-.2 0-1 .8-1.7 1.7m55.4-1c.9.2 2.3.2 3 0 .6-.3-.1-.5-1.8-.5-1.6 0-2.2.2-1.2.5m-581.4 2c-1.3 1.6-1.2 1.7.4.4.9-.7 1.7-1.5 1.7-1.7 0-.8-.8-.3-2.1 1.3m10.1-1.3c0 .2.8 1 1.8 1.7 1.5 1.3 1.6 1.2.3-.4s-2.1-2.1-2.1-1.3m54 1.1c-.7.9-1.1 1.7-.9 2 .3.2 1-.5 1.7-1.5 1.4-2.4 1-2.6-.8-.5m537-1.1c0 .2.8 1 1.8 1.7 1.5 1.3 1.6 1.2.3-.4s-2.1-2.1-2.1-1.3m-641.4 2.5c-1.1 1.2-1.6 3-1.3 4.8l.4 2.8.2-2.9c0-1.6.8-3.8 1.8-4.8.9-1 1.4-1.8 1.1-1.8s-1.3.9-2.2 1.9m219.3-.2c-1.3 1.6-1.2 1.7.4.4s2.1-2.1 1.3-2.1c-.2 0-1 .8-1.7 1.7m15.1-1.3c0 .2.8 1 1.8 1.7 1.5 1.3 1.6 1.2.3-.4s-2.1-2.1-2.1-1.3m97 1c0 .8.4 1.7.9 2 .5.4.7-.3.4-1.4-.6-2.3-1.3-2.6-1.3-.6m52.9 2.3-3.4 3.8 3.8-3.4c3.4-3.3 4.2-4.1 3.4-4.1-.2 0-1.9 1.7-3.8 3.7m218-1c-1.3 1.7-1.3 1.7.6.3 1.1-.8 2.2-1.6 2.4-1.7q.3-.3-.6-.3c-.6 0-1.7.8-2.4 1.7m-599.7.5c-.7.7-1.1 2.1-1.1 3.2.1 2.1.1 2.1.6.1.3-1.1 1-2.6 1.5-3.3 1.3-1.5.6-1.6-1 0m445.8-.8c0 .2.8 1 1.8 1.7 1.5 1.3 1.6 1.2.3-.4s-2.1-2.1-2.1-1.3M275.3 78c0 3 .2 4.3.4 2.7.2-1.5.2-3.9 0-5.5-.2-1.5-.4-.2-.4 2.8m42 1c0 3.6.2 5 .4 3.2.2-1.7.2-4.7 0-6.5-.2-1.7-.4-.3-.4 3.3m38-.5c0 3.3.2 4.5.4 2.7s.2-4.5 0-6-.4 0-.4 3.3m143 1c0 3.8.2 5.3.4 3.2.2-2 .2-5.2 0-7-.2-1.7-.4-.1-.4 3.8M686.2 75c0 1.4.2 1.9.5 1.2.2-.6.2-1.8 0-2.5-.3-.6-.5-.1-.5 1.3m56.8.5c1.3 1.4 2.6 2.5 2.8 2.5.3 0-.5-1.1-1.8-2.5s-2.6-2.5-2.8-2.5c-.3 0 .5 1.1 1.8 2.5m30.3 4c0 3.8.2 5.3.4 3.2.2-2 .2-5.2 0-7-.2-1.7-.4-.1-.4 3.8M422 76c-.6 1.1-.8 2-.6 2 .3 0 1-.9 1.6-2s.8-2 .6-2c-.3 0-1 .9-1.6 2m120-1.6c0 .2.8 1 1.8 1.7 1.5 1.3 1.6 1.2.3-.4s-2.1-2.1-2.1-1.3m60.8.3c.7.3 1.6.2 1.9-.1.4-.3-.2-.6-1.3-.5-1.1 0-1.4.3-.6.6m15.3 1.6c-1.3 2.1-1.2 2.1.5.5 1-1 1.6-2 1.3-2.2-.3-.3-1.1.5-1.8 1.7m28.8-.6c-1.3 1.6-1.2 1.7.4.4.9-.7 1.7-1.5 1.7-1.7 0-.8-.8-.3-2.1 1.3m31.4 1.8c0 2.2.2 3 .4 1.7.2-1.2.2-3 0-4-.3-.9-.5.1-.4 2.3M289 75.4c0 .2.7.7 1.6 1 .8.3 1.2.2.9-.4-.6-1-2.5-1.4-2.5-.6m78.2 2.6c0 1.9.2 2.7.5 1.7.2-.9.2-2.5 0-3.5-.3-.9-.5-.1-.5 1.8m83.8-.5c1.3 1.4 2.6 2.5 2.8 2.5.3 0-.5-1.1-1.8-2.5s-2.6-2.5-2.8-2.5c-.3 0 .5 1.1 1.8 2.5m338.3-.2c1.2 1.3 2.4 2.2 2.6 2 .6-.4-3-4.3-4-4.3-.5 0 .2 1 1.4 2.3m-193.9.9-1.9 2.3 2.3-1.9c2.1-1.8 2.7-2.6 1.9-2.6-.2 0-1.2 1-2.3 2.2m32.7-.2c1.4 3.1 1.9 3.6 1.9 2.4 0-.6-.7-1.9-1.6-3-1.4-1.8-1.4-1.8-.3.6m62.7-1.3c.7.3 1.6.2 1.9-.1.4-.3-.2-.6-1.3-.5-1.1 0-1.4.3-.6.6m163.2-.3c0 .2.8 1 1.8 1.7 1.5 1.3 1.6 1.2.3-.4s-2.1-2.1-2.1-1.3M272.3 83c0 3.6.2 5 .4 3.2.2-1.7.2-4.7 0-6.5-.2-1.7-.4-.3-.4 3.3m33-1c0 3 .2 4.3.4 2.7.2-1.5.2-3.9 0-5.5-.2-1.5-.4-.2-.4 2.8m119.2-3.9c-.4.6-.5 1.2-.2 1.5.2.3.7-.2 1-1.1.7-1.7.1-2-.8-.4M582 79c-.6 1.1-.8 2-.6 2 .3 0 1-.9 1.6-2s.8-2 .6-2c-.3 0-1 .9-1.6 2m113.6-.7c.3 1 .9 1.5 1.2 1.2s0-1.1-.7-1.8c-1-.9-1.1-.8-.5.6m-429.7 2.9c.4 2.8.6 2.9.9.9.2-1.3 0-2.7-.5-3.2-.6-.6-.7.3-.4 2.3m92.4 1.3c0 2.7.2 3.8.4 2.2.2-1.5.2-3.7 0-5-.2-1.2-.4 0-.4 2.8m75.2-3.5c-.3.6.1.7.9.4 1.8-.7 2.1-1.4.7-1.4-.6 0-1.3.4-1.6 1m220.6.6c0 1.1.3 1.4.6.6.3-.7.2-1.6-.1-1.9-.3-.4-.6.2-.5 1.3m-437 1c0 1.1.3 1.4.6.6.3-.7.2-1.6-.1-1.9-.3-.4-.6.2-.5 1.3M659 79.4c0 .2.7.7 1.6 1 .8.3 1.2.2.9-.4-.6-1-2.5-1.4-2.5-.6M830.2 82c0 1.9.2 2.7.5 1.7.2-.9.2-2.5 0-3.5-.3-.9-.5-.1-.5 1.8m-604.6-.7c.3 1 .9 1.5 1.2 1.2s0-1.1-.7-1.8c-1-.9-1.1-.8-.5.6m316.5 2.1-2.4 3.1 2.8-2.7c1.6-1.5 2.7-2.9 2.4-3.1-.2-.3-1.5 1-2.8 2.7m42.4-2.3c-.4.6-.5 1.2-.2 1.5.2.3.7-.2 1-1.1.7-1.7.1-2-.8-.4M750 82.5c1.3 1.4 2.6 2.5 2.8 2.5.3 0-.5-1.1-1.8-2.5s-2.6-2.5-2.8-2.5c-.3 0 .5 1.1 1.8 2.5m20.5 32.5c0 19.5.1 27.5.2 17.8.2-9.8.2-25.8 0-35.5-.1-9.8-.2-1.8-.2 17.7m86.7-33c0 1.4.2 1.9.5 1.2.2-.6.2-1.8 0-2.5-.3-.6-.5-.1-.5 1.3m-563 1.5c0 1.6.2 2.2.5 1.2.2-.9.2-2.3 0-3-.3-.6-.5.1-.5 1.8m298.3-1.4c-.4.6-.5 1.2-.2 1.5.2.3.7-.2 1-1.1.7-1.7.1-2-.8-.4m93.9 9.4c0 6 .1 8.4.3 5.2s.2-8.1 0-11-.3-.3-.3 5.8m10.9-4c0 3.3.2 4.5.4 2.7s.2-4.5 0-6-.4 0-.4 3.3m95-1.5c0 2.5.2 3.5.4 2.2.2-1.2.2-3.2 0-4.5-.2-1.2-.4-.2-.4 2.3m-507.8 31.5c0 19.2.1 27 .2 17.2.2-9.8.2-25.6 0-35-.1-9.5-.3-1.5-.2 17.8m23.8-31c0 2.2.2 3 .4 1.7.2-1.2.2-3 0-4-.3-.9-.5.1-.4 2.3m137.8-1.9c0 1.1.3 1.4.6.6.3-.7.2-1.6-.1-1.9-.3-.4-.6.2-.5 1.3m-228 1c0 1.1.3 1.4.6.6.3-.7.2-1.6-.1-1.9-.3-.4-.6.2-.5 1.3m392.7-.9c.6.2 1.8.2 2.5 0 .6-.3.1-.5-1.3-.5s-1.9.2-1.2.5m200.2 0c0 .6.8 1.7 1.8 2.4 1.6 1.3 1.6 1.3.2-.6-.8-1.1-1.6-2.2-1.7-2.4q-.3-.3-.3.6m-205.6 2.5-1.9 2.3 2.3-1.9c2.1-1.8 2.7-2.6 1.9-2.6-.2 0-1.2 1-2.3 2.2m48.8-.2c0 1.4.2 1.9.5 1.2.2-.6.2-1.8 0-2.5-.3-.6-.5-.1-.5 1.3m-134 1.5c0 1.6.2 2.2.5 1.2.2-.9.2-2.3 0-3-.3-.6-.5.1-.5 1.8M708.4 97c0 6.3.1 8.9.3 5.7.2-3.1.2-8.3 0-11.5-.2-3.1-.3-.5-.3 5.8m-466.3-8.4c0 1.1.3 1.4.6.6.3-.7.2-1.6-.1-1.9-.3-.4-.6.2-.5 1.3m197 0c0 1.1.3 1.4.6.6.3-.7.2-1.6-.1-1.9-.3-.4-.6.2-.5 1.3M665.4 116c0 16.2.2 22.9.3 14.7.2-8.1.2-21.3 0-29.5-.1-8.1-.3-1.4-.3 14.8m63.8-26c0 1.9.2 2.7.5 1.7.2-.9.2-2.5 0-3.5-.3-.9-.5-.1-.5 1.8m5-.5c0 1.6.2 2.2.5 1.2.2-.9.2-2.3 0-3-.3-.6-.5.1-.5 1.8m48.2 30c0 18.1.2 25.7.3 16.8.2-8.9.2-23.7 0-33-.1-9.2-.3-2-.3 16.2M238.1 90.6c0 1.1.3 1.4.6.6.3-.7.2-1.6-.1-1.9-.3-.4-.6.2-.5 1.3m209 0c0 1.1.3 1.4.6.6.3-.7.2-1.6-.1-1.9-.3-.4-.6.2-.5 1.3m372.3 7.9c0 5.5.1 7.6.3 4.7s.2-7.4 0-10-.3-.2-.3 5.3M366.2 93c0 1.9.2 2.7.5 1.7.2-.9.2-2.5 0-3.5-.3-.9-.5-.1-.5 1.8m144.1 4.5c0 4.4.2 6.1.4 3.7.2-2.3.2-5.9 0-8-.2-2-.4-.1-.4 4.3m209-3c0 2.7.2 3.8.4 2.2.2-1.5.2-3.7 0-5-.2-1.2-.4 0-.4 2.8m-478.2-1.9c0 1.1.3 1.4.6.6.3-.7.2-1.6-.1-1.9-.3-.4-.6.2-.5 1.3m113.2 1.9c0 2.2.2 3 .4 1.7.2-1.2.2-3 0-4-.3-.9-.5.1-.4 2.3m61.8-1.9c0 1.1.3 1.4.6.6.3-.7.2-1.6-.1-1.9-.3-.4-.6.2-.5 1.3m-196 1c0 1.1.3 1.4.6.6.3-.7.2-1.6-.1-1.9-.3-.4-.6.2-.5 1.3m96.1 1.4c0 1.9.2 2.7.5 1.7.2-.9.2-2.5 0-3.5-.3-.9-.5-.1-.5 1.8m61 0c0 1.9.2 2.7.5 1.7.2-.9.2-2.5 0-3.5-.3-.9-.5-.1-.5 1.8m62.9-1.4c0 1.1.3 1.4.6.6.3-.7.2-1.6-.1-1.9-.3-.4-.6.2-.5 1.3m17 0c0 1.1.3 1.4.6.6.3-.7.2-1.6-.1-1.9-.3-.4-.6.2-.5 1.3m299 0c0 1.1.3 1.4.6.6.3-.7.2-1.6-.1-1.9-.3-.4-.6.2-.5 1.3m-176 1c0 1.1.3 1.4.6.6.3-.7.2-1.6-.1-1.9-.3-.4-.6.2-.5 1.3m-343 1c0 1.1.3 1.4.6.6.3-.7.2-1.6-.1-1.9-.3-.4-.6.2-.5 1.3m67.2 4.4c0 3.6.2 5 .4 3.2.2-1.7.2-4.7 0-6.5-.2-1.7-.4-.3-.4 3.3m53 .5c0 3.8.2 5.3.4 3.2.2-2 .2-5.2 0-7-.2-1.7-.4-.1-.4 3.8M327.2 98c0 1.9.2 2.7.5 1.7.2-.9.2-2.5 0-3.5-.3-.9-.5-.1-.5 1.8m120.9-1.4c0 1.1.3 1.4.6.6.3-.7.2-1.6-.1-1.9-.3-.4-.6.2-.5 1.3m226.2 5.4c0 4.1.2 5.8.4 3.7.2-2 .2-5.4 0-7.5-.2-2-.4-.3-.4 3.8m-367 1c0 3.6.2 5 .4 3.2.2-1.7.2-4.7 0-6.5-.2-1.7-.4-.3-.4 3.3m281.1 10c0 9.1.2 12.8.3 8.2.2-4.5.2-11.9 0-16.5-.1-4.5-.3-.8-.3 8.3m11.7-14.4c0 1.1.3 1.4.6.6.3-.7.2-1.6-.1-1.9-.3-.4-.6.2-.5 1.3m156 0c0 1.1.3 1.4.6.6.3-.7.2-1.6-.1-1.9-.3-.4-.6.2-.5 1.3m-298 1c0 1.1.3 1.4.6.6.3-.7.2-1.6-.1-1.9-.3-.4-.6.2-.5 1.3m-17 1c0 1.1.3 1.4.6.6.3-.7.2-1.6-.1-1.9-.3-.4-.6.2-.5 1.3m399.2 3.9c0 3.3.2 4.5.4 2.7s.2-4.5 0-6-.4 0-.4 3.3m-601.2-2.9c0 1.1.3 1.4.6.6.3-.7.2-1.6-.1-1.9-.3-.4-.6.2-.5 1.3m56.3 27.9c0 16.5.2 23.4.3 15.3.2-8.1.2-21.6 0-30-.1-8.4-.3-1.8-.3 14.7m280.9-26c0 2.2.2 3 .4 1.7.2-1.2.2-3 0-4-.3-.9-.5.1-.4 2.3m-127.2-.9c0 1.1.3 1.4.6.6.3-.7.2-1.6-.1-1.9-.3-.4-.6.2-.5 1.3m262.3 12.9c0 8.2.2 11.5.3 7.2.2-4.3.2-11 0-15-.1-4-.3-.5-.3 7.8m25.5-10.8-3.4 3.8 3.8-3.4c3.4-3.3 4.2-4.1 3.4-4.1-.2 0-1.9 1.7-3.8 3.7m85.4 2.8c0 3.8.2 5.3.4 3.2.2-2 .2-5.2 0-7-.2-1.7-.4-.1-.4 3.8m7-1.5c0 3 .2 4.3.4 2.7.2-1.5.2-3.9 0-5.5-.2-1.5-.4-.2-.4 2.8m-152 3.5c0 4.4.2 6.1.4 3.7.2-2.3.2-5.9 0-8-.2-2-.4-.1-.4 4.3m-239.7-5c-.9 2.6-.7 3.2.5 1.2.6-1 .9-2.1.6-2.3-.2-.3-.7.2-1.1 1.1m91.5-1.2c.2.1 1.3.9 2.4 1.7 1.9 1.4 1.9 1.4.6-.3-.7-.9-1.8-1.7-2.4-1.7q-.9 0-.6.3m70 1.3c0 1.1.3 1.4.6.6.3-.7.2-1.6-.1-1.9-.3-.4-.6.2-.5 1.3m-388 1c0 1.1.3 1.4.6.6.3-.7.2-1.6-.1-1.9-.3-.4-.6.2-.5 1.3m248 0c0 1.1.3 1.4.6.6.3-.7.2-1.6-.1-1.9-.3-.4-.6.2-.5 1.3M376.4 118c0 7.4.1 10.5.3 6.7.2-3.7.2-9.7 0-13.5-.2-3.7-.3-.6-.3 6.8m47.7-10.4c0 1.1.3 1.4.6.6.3-.7.2-1.6-.1-1.9-.3-.4-.6.2-.5 1.3m-209 1c0 1.1.3 1.4.6.6.3-.7.2-1.6-.1-1.9-.3-.4-.6.2-.5 1.3m18.5-.1c-.9 2.6-.7 3.2.5 1.2.6-1 .9-2.1.6-2.3-.2-.3-.7.2-1.1 1.1m208.6.5c0 1.4.2 1.9.5 1.2.2-.6.2-1.8 0-2.5-.3-.6-.5-.1-.5 1.3m7.9-.4c0 1.1.3 1.4.6.6.3-.7.2-1.6-.1-1.9-.3-.4-.6.2-.5 1.3m83 0c0 1.1.3 1.4.6.6.3-.7.2-1.6-.1-1.9-.3-.4-.6.2-.5 1.3m198.4.3c-.3.5-.2 1.2.3 1.5s.9-.1.9-.9c0-1.7-.3-1.9-1.2-.6m-405.3 17.8c-.2 16.9-.1 18.3 1.6 18.3 1.2 0 1.3-.3.5-.8-.9-.6-1.3-5.8-1.6-18.2l-.3-17.5zm113-15.7c0 1.4.2 1.9.5 1.2.2-.6.2-1.8 0-2.5-.3-.6-.5-.1-.5 1.3m310.2.2-1.9 2.3 2.3-1.9c1.2-1.1 2.2-2.1 2.2-2.3 0-.8-.8-.2-2.6 1.9m-289.3.4c0 1.1.3 1.4.6.6.3-.7.2-1.6-.1-1.9-.3-.4-.6.2-.5 1.3m-94.7 12.9c0 7.7.2 10.7.3 6.7.2-4 .2-10.3 0-14s-.3-.4-.3 7.3m173.7-11.8c.7 1.2 1.5 2 1.8 1.7.3-.2-.3-1.2-1.3-2.2-1.7-1.6-1.8-1.6-.5.5m-14.3 0c.7.3 1.6.2 1.9-.1.4-.3-.2-.6-1.3-.5-1.1 0-1.4.3-.6.6m-299.7 1.9c0 1.1.3 1.4.6.6.3-.7.2-1.6-.1-1.9-.3-.4-.6.2-.5 1.3m128.1 1.4c0 1.9.2 2.7.5 1.7.2-.9.2-2.5 0-3.5-.3-.9-.5-.1-.5 1.8m97.9-1.4c0 1.1.3 1.4.6.6.3-.7.2-1.6-.1-1.9-.3-.4-.6.2-.5 1.3m245.2 6.4c0 4.7.2 6.6.4 4.2.2-2.3.2-6.1 0-8.5-.2-2.3-.4-.4-.4 4.3m-340-3.5c0 2.2.2 3 .4 1.7.2-1.2.2-3 0-4-.3-.9-.5.1-.4 2.3m388.7-2c-.7.9-1.1 1.7-.9 2 .3.2 1-.5 1.7-1.5 1.4-2.4 1-2.6-.8-.5M443.2 117c0 1.4.2 1.9.5 1.2.2-.6.2-1.8 0-2.5-.3-.6-.5-.1-.5 1.3m59.2 13.5c0 8.8.2 12.3.3 7.7.2-4.6.2-11.8 0-16-.1-4.2-.3-.5-.3 8.3m-285.3-12.9c0 1.1.3 1.4.6.6.3-.7.2-1.6-.1-1.9-.3-.4-.6.2-.5 1.3m86.1 1.4c0 1.9.2 2.7.5 1.7.2-.9.2-2.5 0-3.5-.3-.9-.5-.1-.5 1.8m157.9-1.4c0 1.1.3 1.4.6.6.3-.7.2-1.6-.1-1.9-.3-.4-.6.2-.5 1.3m277.9-1.2c0 .2.8 1 1.8 1.7 1.5 1.3 1.6 1.2.3-.4s-2.1-2.1-2.1-1.3m-432.7 4.1c0 2.2.2 3 .4 1.7.2-1.2.2-3 0-4-.3-.9-.5.1-.4 2.3m133.8-1.9c0 1.1.3 1.4.6.6.3-.7.2-1.6-.1-1.9-.3-.4-.6.2-.5 1.3m70.2 3.9c0 3.3.2 4.5.4 2.7s.2-4.5 0-6-.4 0-.4 3.3m-284.2-2.9c0 1.1.3 1.4.6.6.3-.7.2-1.6-.1-1.9-.3-.4-.6.2-.5 1.3m17 0c0 1.1.3 1.4.6.6.3-.7.2-1.6-.1-1.9-.3-.4-.6.2-.5 1.3m337.2 2.4c0 2.5.2 3.5.4 2.2.2-1.2.2-3.2 0-4.5-.2-1.2-.4-.2-.4 2.3m-128.2-1.4c0 1.1.3 1.4.6.6.3-.7.2-1.6-.1-1.9-.3-.4-.6.2-.5 1.3m158.7-.9c.7.3 1.6.2 1.9-.1.4-.3-.2-.6-1.3-.5-1.1 0-1.4.3-.6.6m74.6 9.8c0 6 .1 8.4.3 5.2s.2-8.1 0-11-.3-.3-.3 5.8m-467.3-6.9c0 1.1.3 1.4.6.6.3-.7.2-1.6-.1-1.9-.3-.4-.6.2-.5 1.3m219.7-.9c.6.2 1.8.2 2.5 0 .6-.3.1-.5-1.3-.5s-1.9.2-1.2.5m180.7 1.3c1 1.1 2 2 2.3 2s-.3-.9-1.3-2-2-2-2.3-2 .3.9 1.3 2m-156.4.6c0 1.1.3 1.4.6.6.3-.7.2-1.6-.1-1.9-.3-.4-.6.2-.5 1.3m115.2 2.4c0 2.5.2 3.5.4 2.2.2-1.2.2-3.2 0-4.5-.2-1.2-.4-.2-.4 2.3m262.1 9.5c0 7.7.2 10.7.3 6.7.2-4 .2-10.3 0-14s-.3-.4-.3 7.3m-612.3-10.9c0 1.1.3 1.4.6.6.3-.7.2-1.6-.1-1.9-.3-.4-.6.2-.5 1.3m15 0c0 1.1.3 1.4.6.6.3-.7.2-1.6-.1-1.9-.3-.4-.6.2-.5 1.3m355.9-.9c0 .6.8 1.7 1.8 2.4 1.6 1.3 1.6 1.3.2-.6-.8-1.1-1.6-2.2-1.7-2.4q-.3-.3-.3.6m152-.3c0 .2.8 1 1.8 1.7 1.5 1.3 1.6 1.2.3-.4s-2.1-2.1-2.1-1.3m-19.7 8.1c0 4.4.2 6.1.4 3.7.2-2.3.2-5.9 0-8-.2-2-.4-.1-.4 4.3m88.1 5c0 7.1.1 9.9.3 6.2s.2-9.6 0-13-.3-.4-.3 6.8m-99 0c0 6.6.1 9.2.3 5.7.2-3.4.2-8.8 0-12-.2-3.1-.3-.3-.3 6.3m-266.3-8.9c0 1.1.3 1.4.6.6.3-.7.2-1.6-.1-1.9-.3-.4-.6.2-.5 1.3m-234 1c0 1.1.3 1.4.6.6.3-.7.2-1.6-.1-1.9-.3-.4-.6.2-.5 1.3m22 1c0 1.1.3 1.4.6.6.3-.7.2-1.6-.1-1.9-.3-.4-.6.2-.5 1.3m222.1.4c0 1.4.2 1.9.5 1.2.2-.6.2-1.8 0-2.5-.3-.6-.5-.1-.5 1.3m365.1 2c0 2.5.2 3.5.4 2.2.2-1.2.2-3.2 0-4.5-.2-1.2-.4-.2-.4 2.3m-227.1-1.6c.7.8 1.5 1.2 1.7 1.1.5-.6-1-2.5-2-2.5-.5 0-.4.6.3 1.4m-182.2.7c0 .5.5.7 1 .4.6-.3 1-.8 1-1.1 0-.2-.4-.4-1-.4-.5 0-1 .5-1 1.1m8.8-.4c1.2.2 3.2.2 4.5 0 1.2-.2.2-.4-2.3-.4s-3.5.2-2.2.4m-51.6 7.5c-.2 5.9 0 6.8 1.6 6.8 1.1 0 1.3-.3.5-.8-.6-.4-1.4-3.4-1.6-6.7l-.3-6zm78-4.2c0 1.4.2 1.9.5 1.2.2-.6.2-1.8 0-2.5-.3-.6-.5-.1-.5 1.3m-214.1.6c0 1.1.3 1.4.6.6.3-.7.2-1.6-.1-1.9-.3-.4-.6.2-.5 1.3m349 0c0 1.1.3 1.4.6.6.3-.7.2-1.6-.1-1.9-.3-.4-.6.2-.5 1.3m33.1 1.4c0 1.9.2 2.7.5 1.7.2-.9.2-2.5 0-3.5-.3-.9-.5-.1-.5 1.8m-393.1-.8c-.1 1 .6 1.8 1.4 1.8s1.5-.5 1.5-1.1c0-.5-.4-.8-.9-.5-.5.4-1.2 0-1.4-.6-.3-.8-.6-.6-.6.4m23 .4c0 1.1.3 1.4.6.6.3-.7.2-1.6-.1-1.9-.3-.4-.6.2-.5 1.3m156 0c0 1.1.3 1.4.6.6.3-.7.2-1.6-.1-1.9-.3-.4-.6.2-.5 1.3m10 0c0 1.1.3 1.4.6.6.3-.7.2-1.6-.1-1.9-.3-.4-.6.2-.5 1.3m103.2 3.4c0 3 .2 4.3.4 2.7.2-1.5.2-3.9 0-5.5-.2-1.5-.4-.2-.4 2.8m59.9-3c0 1.4.2 1.9.5 1.2.2-.6.2-1.8 0-2.5-.3-.6-.5-.1-.5 1.3m-117.1.6c0 1.1.3 1.4.6.6.3-.7.2-1.6-.1-1.9-.3-.4-.6.2-.5 1.3m168 0c0 1.1.3 1.4.6.6.3-.7.2-1.6-.1-1.9-.3-.4-.6.2-.5 1.3m41.1.9c0 1.6.2 2.2.5 1.2.2-.9.2-2.3 0-3-.3-.6-.5.1-.5 1.8m148.1 3c0 3.3.2 4.5.4 2.7s.2-4.5 0-6-.4 0-.4 3.3M306.2 138c0 1.4.2 1.9.5 1.2.2-.6.2-1.8 0-2.5-.3-.6-.5-.1-.5 1.3m272 0c0 1.4.2 1.9.5 1.2.2-.6.2-1.8 0-2.5-.3-.6-.5-.1-.5 1.3m-132.1.6c0 1.1.3 1.4.6.6.3-.7.2-1.6-.1-1.9-.3-.4-.6.2-.5 1.3m153 0c0 1.1.3 1.4.6.6.3-.7.2-1.6-.1-1.9-.3-.4-.6.2-.5 1.3m11.1.4c0 1.4.2 1.9.5 1.2.2-.6.2-1.8 0-2.5-.3-.6-.5-.1-.5 1.3m36 0c0 1.4.2 1.9.5 1.2.2-.6.2-1.8 0-2.5-.3-.6-.5-.1-.5 1.3m-407.1.6c0 1.1.3 1.4.6.6.3-.7.2-1.6-.1-1.9-.3-.4-.6.2-.5 1.3m64.1.4c0 1.4.2 1.9.5 1.2.2-.6.2-1.8 0-2.5-.3-.6-.5-.1-.5 1.3m53 0c0 1.4.2 1.9.5 1.2.2-.6.2-1.8 0-2.5-.3-.6-.5-.1-.5 1.3m47.9-.4c0 1.1.3 1.4.6.6.3-.7.2-1.6-.1-1.9-.3-.4-.6.2-.5 1.3m272 0c0 1.1.3 1.4.6.6.3-.7.2-1.6-.1-1.9-.3-.4-.6.2-.5 1.3m-425 1c0 1.1.3 1.4.6.6.3-.7.2-1.6-.1-1.9-.3-.4-.6.2-.5 1.3m362.1.4c0 1.4.2 1.9.5 1.2.2-.6.2-1.8 0-2.5-.3-.6-.5-.1-.5 1.3m122.9-.4c0 1.1.3 1.4.6.6.3-.7.2-1.6-.1-1.9-.3-.4-.6.2-.5 1.3m-383 1c0 1.1.3 1.4.6.6.3-.7.2-1.6-.1-1.9-.3-.4-.6.2-.5 1.3m54 0c0 1.1.3 1.4.6.6.3-.7.2-1.6-.1-1.9-.3-.4-.6.2-.5 1.3m10 0c0 1.1.3 1.4.6.6.3-.7.2-1.6-.1-1.9-.3-.4-.6.2-.5 1.3m12 0c0 1.1.3 1.4.6.6.3-.7.2-1.6-.1-1.9-.3-.4-.6.2-.5 1.3m11.4-.9c1.1.3 2.4 1 2.8 1.7.6.7.7.6.4-.4-.2-.8-1.4-1.6-2.8-1.7-1.9-.1-2-.1-.4.4M272.3 145c0 2.5.2 3.5.4 2.2.2-1.2.2-3.2 0-4.5-.2-1.2-.4-.2-.4 2.3m62-1.3c.9.2 2.5.2 3.5 0 .9-.3.1-.5-1.8-.5s-2.7.2-1.7.5m50 0c.9.2 2.5.2 3.5 0 .9-.3.1-.5-1.8-.5s-2.7.2-1.7.5m114.9 1.3c0 1.4.2 1.9.5 1.2.2-.6.2-1.8 0-2.5-.3-.6-.5-.1-.5 1.3m28.6-1.3c1.2.2 3 .2 4 0 .9-.3-.1-.5-2.3-.4-2.2 0-3 .2-1.7.4m212.3.9c0 1.1.3 1.4.6.6.3-.7.2-1.6-.1-1.9-.3-.4-.6.2-.5 1.3m-424 1c0 1.1.3 1.4.6.6.3-.7.2-1.6-.1-1.9-.3-.4-.6.2-.5 1.3m24.9-1.2c0 .2.8 1 1.8 1.7 1.5 1.3 1.6 1.2.3-.4s-2.1-2.1-2.1-1.3m51.1 1.3c.7 1.2 1.5 2 1.8 1.7.3-.2-.3-1.2-1.3-2.2-1.7-1.6-1.8-1.6-.5.5m55.1.3c0 1.4.2 1.9.5 1.2.2-.6.2-1.8 0-2.5-.3-.6-.5-.1-.5 1.3m88.3 0c1 1.1 2 2 2.3 2s-.3-.9-1.3-2-2-2-2.3-2 .3.9 1.3 2m120.5-1.6c0 .2.8 1 1.8 1.7 1.5 1.3 1.6 1.2.3-.4s-2.1-2.1-2.1-1.3m16.9 1.3c-1.3 1.6-1.2 1.7.4.4.9-.7 1.7-1.5 1.7-1.7 0-.8-.8-.3-2.1 1.3m100.3.8c0 1.6.2 2.2.5 1.2.2-.9.2-2.3 0-3-.3-.6-.5.1-.5 1.8m56.1 1c0 2.2.2 3 .4 1.7.2-1.2.2-3 0-4-.3-.9-.5.1-.4 2.3m-401.2-.9c0 1.1.3 1.4.6.6.3-.7.2-1.6-.1-1.9-.3-.4-.6.2-.5 1.3m28.1.4c0 1.4.2 1.9.5 1.2.2-.6.2-1.8 0-2.5-.3-.6-.5-.1-.5 1.3m-66.6.5c.4.8 0 2.3-.7 3.3-1.3 1.5-1.2 1.6.4.3 1.9-1.5 2.2-3.6.7-4.6-.6-.3-.7.1-.4 1m124.2-.8c.7.3 1.6.2 1.9-.1.4-.3-.2-.6-1.3-.5-1.1 0-1.4.3-.6.6m7 0c.6.2 1.8.2 2.5 0 .6-.3.1-.5-1.3-.5s-1.9.2-1.2.5m11.2-.3c0 .2.8 1 1.8 1.7 1.5 1.3 1.6 1.2.3-.4s-2.1-2.1-2.1-1.3m53.5 1.6c1 1.1 2 2 2.3 2s-.3-.9-1.3-2-2-2-2.3-2 .3.9 1.3 2m-227.5-.1c0 .6.4 1.3 1 1.6s.7-.1.4-.9c-.7-1.8-1.4-2.1-1.4-.7m58.1 1.1c0 1.5-.4 3-.8 3.6-.5.5-.2.4.5-.2.8-.6 1.2-2.2.9-3.5-.4-2.4-.4-2.4-.6.1m28-.4c0 1.1.3 1.4.6.6.3-.7.2-1.6-.1-1.9-.3-.4-.6.2-.5 1.3m138.9.9c1.3 1.4 2.6 2.5 2.8 2.5.3 0-.5-1.1-1.8-2.5s-2.6-2.5-2.8-2.5c-.3 0 .5 1.1 1.8 2.5m96.9.2-2.4 2.8 2.8-2.4c1.5-1.4 2.7-2.6 2.7-2.8 0-.8-.8-.1-3.1 2.4m-213.8-.1c0 1.1.3 1.4.6.6.3-.7.2-1.6-.1-1.9-.3-.4-.6.2-.5 1.3m36.9-.7c0 .6.4 1.3 1 1.6s.7-.1.4-.9c-.7-1.8-1.4-2.1-1.4-.7m118.1 1.7c0 1.1.3 1.4.6.6.3-.7.2-1.6-.1-1.9-.3-.4-.6.2-.5 1.3m25.9-.2c0 .2.8 1 1.8 1.7 1.5 1.3 1.6 1.2.3-.4s-2.1-2.1-2.1-1.3m-299 1c0 .2.8 1 1.8 1.7 1.5 1.3 1.6 1.2.3-.4s-2.1-2.1-2.1-1.3m10 2.1c1.3 1.4 2.6 2.5 2.8 2.5.3 0-.5-1.1-1.8-2.5s-2.6-2.5-2.8-2.5c-.3 0 .5 1.1 1.8 2.5m39.1-2.2c.2.1 1.3.9 2.4 1.7 1.9 1.4 1.9 1.4.6-.3-.7-.9-1.8-1.7-2.4-1.7q-.9 0-.6.3m47.9.4c0 .5 1 1.8 2.3 2.9l2.2 1.9-2-2.5c-1.1-1.4-2.1-2.7-2.2-2.9q-.3-.3-.3.6m297-.3c0 .2.8 1 1.8 1.7 1.5 1.3 1.6 1.2.3-.4s-2.1-2.1-2.1-1.3M223.5 154c1 1.1 2 2 2.3 2s-.3-.9-1.3-2-2-2-2.3-2 .3.9 1.3 2m83.5-1.6c0 .2.8 1 1.8 1.7 1.5 1.3 1.6 1.2.3-.4s-2.1-2.1-2.1-1.3m120.2 1.6c0 1.4.2 1.9.5 1.2.2-.6.2-1.8 0-2.5-.3-.6-.5-.1-.5 1.3m75.3 0c1 1.1 2 2 2.3 2s-.3-.9-1.3-2-2-2-2.3-2 .3.9 1.3 2m85.5 0c.6 1.1 1.3 2 1.6 2 .2 0 0-.9-.6-2s-1.3-2-1.6-2c-.2 0 0 .9.6 2m-136.2-.3c.7.3 1.6.2 1.9-.1.4-.3-.2-.6-1.3-.5-1.1 0-1.4.3-.6.6m199.2-.3c0 .2.8 1 1.8 1.7 1.5 1.3 1.6 1.2.3-.4s-2.1-2.1-2.1-1.3m109.1 1.2c0 1.1.3 1.4.6.6.3-.7.2-1.6-.1-1.9-.3-.4-.6.2-.5 1.3m-128 1c0 1.1.3 1.4.6.6.3-.7.2-1.6-.1-1.9-.3-.4-.6.2-.5 1.3m189.1 0c1 1 2 1.6 2.2 1.3.3-.3-.5-1.1-1.7-1.8-2.1-1.3-2.1-1.2-.5.5m-470.1 1c0 1.1.3 1.4.6.6.3-.7.2-1.6-.1-1.9-.3-.4-.6.2-.5 1.3m116.1.4c0 1.4.2 1.9.5 1.2.2-.6.2-1.8 0-2.5-.3-.6-.5-.1-.5 1.3m248 0c0 1.4.2 1.9.5 1.2.2-.6.2-1.8 0-2.5-.3-.6-.5-.1-.5 1.3m27.5-.9c.7.7 1.5 1 1.8.7s-.2-.9-1.2-1.2c-1.4-.6-1.5-.5-.6.5m-429.7.8c0 .6.4 1.3 1 1.6s.7-.1.4-.9c-.7-1.8-1.4-2.1-1.4-.7m232.1.7c0 1.1.3 1.4.6.6.3-.7.2-1.6-.1-1.9-.3-.4-.6.2-.5 1.3m144.8 1.1-2.4 2.8 2.8-2.4c1.5-1.4 2.7-2.6 2.7-2.8 0-.8-.8-.1-3.1 2.4m-34.4.3c1 1.1 2 2 2.3 2s-.3-.9-1.3-2-2-2-2.3-2 .3.9 1.3 2m-256.6.7c-1.3 1.6-1.2 1.7.4.4s2.1-2.1 1.3-2.1c-.2 0-1 .8-1.7 1.7m347.1-.8c0 .6.4 1.3 1 1.6s.7-.1.4-.9c-.7-1.8-1.4-2.1-1.4-.7m32 0c0 .6.4 1.3 1 1.6s.7-.1.4-.9c-.7-1.8-1.4-2.1-1.4-.7m-414 .5c0 .2.8 1 1.8 1.7 1.5 1.3 1.6 1.2.3-.4s-2.1-2.1-2.1-1.3m362.9 1.3c-1.3 1.6-1.2 1.7.4.4.9-.7 1.7-1.5 1.7-1.7 0-.8-.8-.3-2.1 1.3m110.7 1.1-1.9 2.7 2.4-2.2c1.2-1.2 2.1-2.4 1.8-2.7-.2-.2-1.3.8-2.3 2.2M230 160.4c0 .2.8 1 1.8 1.7 1.5 1.3 1.6 1.2.3-.4s-2.1-2.1-2.1-1.3m13.7 1.6c-.9 1.1-1.3 2-.7 2 .5 0 1.4-.9 2-2s.9-2 .8-2c-.2 0-1.1.9-2.1 2m181.2-.3c-1.3 1.6-1.2 1.7.4.4s2.1-2.1 1.3-2.1c-.2 0-1 .8-1.7 1.7m28.1-1.3c0 .2.8 1 1.8 1.7 1.5 1.3 1.6 1.2.3-.4s-2.1-2.1-2.1-1.3m56 0c0 .2.8 1 1.8 1.7 1.5 1.3 1.6 1.2.3-.4s-2.1-2.1-2.1-1.3m33.9 1.3c-1.3 1.6-1.2 1.7.4.4s2.1-2.1 1.3-2.1c-.2 0-1 .8-1.7 1.7m177.9 1c.6.2 1.8.2 2.5 0 .6-.3.1-.5-1.3-.5s-1.9.2-1.2.5"/><g fill="gray" stroke-width="0"><path d="M517.3 65.7c1.5.2 3.9.2 5.5 0 1.5-.2.2-.4-2.8-.4s-4.3.2-2.7.4m83.5 0c.7.3 1.6.2 1.9-.1.4-.3-.2-.6-1.3-.5-1.1 0-1.4.3-.6.6m8 0c.7.3 1.6.2 1.9-.1.4-.3-.2-.6-1.3-.5-1.1 0-1.4.3-.6.6M366 67.4c0 .2.8 1 1.8 1.7 1.5 1.3 1.6 1.2.3-.4s-2.1-2.1-2.1-1.3m237.3.3c1.5.2 3.7.2 5 0 1.2-.2 0-.4-2.8-.4-2.7 0-3.8.2-2.2.4m-351.5 1c.7.3 1.6.2 1.9-.1.4-.3-.2-.6-1.3-.5-1.1 0-1.4.3-.6.6m366.2-.3c0 .2.8 1 1.8 1.7 1.5 1.3 1.6 1.2.3-.4s-2.1-2.1-2.1-1.3m197.3.3c2 .2 5.4.2 7.5 0 2-.2.3-.4-3.8-.4s-5.8.2-3.7.4m26 0c.9.2 2.3.2 3 0 .6-.3-.1-.5-1.8-.5-1.6 0-2.2.2-1.2.5m-630.5 1c.7.3 1.6.2 1.9-.1.4-.3-.2-.6-1.3-.5-1.1 0-1.4.3-.6.6m107.8.6c.3 1 .9 1.5 1.2 1.2s0-1.1-.7-1.8c-1-.9-1.1-.8-.5.6m107.3 1.4-2.4 2.8 2.8-2.4c1.5-1.4 2.7-2.6 2.7-2.8 0-.8-.8-.1-3.1 2.4M616 69.4c0 .2.8 1 1.8 1.7 1.5 1.3 1.6 1.2.3-.4s-2.1-2.1-2.1-1.3m-401 1c0 .2.8 1 1.8 1.7 1.5 1.3 1.6 1.2.3-.4s-2.1-2.1-2.1-1.3m36.8.3c.7.3 1.6.2 1.9-.1.4-.3-.2-.6-1.3-.5-1.1 0-1.4.3-.6.6m176.1 2-2.4 2.8 2.8-2.4c2.5-2.3 3.2-3.1 2.4-3.1-.2 0-1.4 1.2-2.8 2.7m159.5-.5-1.9 2.3 2.3-1.9c1.2-1.1 2.2-2.1 2.2-2.3 0-.8-.8-.2-2.6 1.9m227.9-1.5c2 .2 5.4.2 7.5 0 2-.2.3-.4-3.8-.4s-5.8.2-3.7.4m26 0c.9.2 2.3.2 3 0 .6-.3-.1-.5-1.8-.5-1.6 0-2.2.2-1.2.5M306.2 74c0 1.9.2 2.7.5 1.7.2-.9.2-2.5 0-3.5-.3-.9-.5-.1-.5 1.8m52 1c0 1.9.2 2.7.5 1.7.2-.9.2-2.5 0-3.5-.3-.9-.5-.1-.5 1.8m8.9-1.4c0 1.1.3 1.4.6.6.3-.7.2-1.6-.1-1.9-.3-.4-.6.2-.5 1.3m134.3 19.9c0 12.1.2 16.9.3 10.7.2-6.2.2-16.1 0-22-.1-5.9-.3-.8-.3 11.3m31.7-19.2c-1.3 2.1-1.2 2.1.5.5 1-1 1.6-2 1.3-2.2-.3-.3-1.1.5-1.8 1.7m121.5-.1c1 1.4 2.1 2.4 2.3 2.2.3-.3-.6-1.5-1.8-2.7l-2.4-2.2zm-398.5.4c0 1.1.3 1.4.6.6.3-.7.2-1.6-.1-1.9-.3-.4-.6.2-.5 1.3m52.2 3.4c0 3 .2 4.3.4 2.7.2-1.5.2-3.9 0-5.5-.2-1.5-.4-.2-.4 2.8m135.3-3.7c.3 1 .9 1.5 1.2 1.2s0-1.1-.7-1.8c-1-.9-1.1-.8-.5.6m200.5.1c-.8.9-1 10.6-.8 33.7l.2 32.4.3-32.6c.1-23.7.5-32.8 1.4-33.7.7-.7.9-1.2.6-1.2s-1.1.6-1.7 1.4m57.8.3c-1.3 1.6-1.2 1.7.4.4.9-.7 1.7-1.5 1.7-1.7 0-.8-.8-.3-2.1 1.3m35.1-1.4c0 .2 1.5 1.6 3.3 3.3l3.2 2.9-2.9-3.3c-2.8-3-3.6-3.7-3.6-2.9m110.1 1.3c0 1.1.3 1.4.6.6.3-.7.2-1.6-.1-1.9-.3-.4-.6.2-.5 1.3m-575 1c0 1.1.3 1.4.6.6.3-.7.2-1.6-.1-1.9-.3-.4-.6.2-.5 1.3m381 .1c.7 1.2 1.5 2 1.8 1.7.3-.2-.3-1.2-1.3-2.2-1.7-1.6-1.8-1.6-.5.5M770.2 77c0 1.9.2 2.7.5 1.7.2-.9.2-2.5 0-3.5-.3-.9-.5-.1-.5 1.8m-485.9 2c0 2.5.2 3.5.4 2.2.2-1.2.2-3.2 0-4.5-.2-1.2-.4-.2-.4 2.3m89.7-3.6c0 .2.8 1 1.8 1.7 1.5 1.3 1.6 1.2.3-.4s-2.1-2.1-2.1-1.3M675.4 85c0 5.8.1 8.1.3 5.2.2-2.8.2-7.6 0-10.5-.2-2.8-.3-.5-.3 5.3m106.9-4c0 3.6.2 5 .4 3.2.2-1.7.2-4.7 0-6.5-.2-1.7-.4-.3-.4 3.3m-272 2c0 4.1.2 5.8.4 3.7.2-2 .2-5.4 0-7.5-.2-2-.4-.3-.4 3.8M804 76.7c0 .6.8 1.7 1.8 2.4 1.6 1.3 1.6 1.3.2-.6-.8-1.1-1.6-2.2-1.7-2.4q-.3-.3-.3.6m-259.9 1.9c0 1.1.3 1.4.6.6.3-.7.2-1.6-.1-1.9-.3-.4-.6.2-.5 1.3M645.4 107c0 16.8.2 23.6.3 15.2.2-8.3.2-22.1 0-30.5-.1-8.3-.3-1.5-.3 15.3m41.8-28c0 1.4.2 1.9.5 1.2.2-.6.2-1.8 0-2.5-.3-.6-.5-.1-.5 1.3m58.3 0c1 1.1 2 2 2.3 2s-.3-.9-1.3-2-2-2-2.3-2 .3.9 1.3 2m-418.2 8c0 4.7.2 6.6.4 4.2.2-2.3.2-6.1 0-8.5-.2-2.3-.4-.4-.4 4.3m392-2.5c0 3.3.2 4.5.4 2.7s.2-4.5 0-6-.4 0-.4 3.3m14.2-3.5c1 1.1 2 2 2.3 2s-.3-.9-1.3-2-2-2-2.3-2 .3.9 1.3 2m-356.2 5c0 3.6.2 5 .4 3.2.2-1.7.2-4.7 0-6.5-.2-1.7-.4-.3-.4 3.3m68.8-4.4c0 1.1.3 1.4.6.6.3-.7.2-1.6-.1-1.9-.3-.4-.6.2-.5 1.3m262.1-.9 2.7.4.4 10.2.3 10.2.2-10.8.2-10.7-3.2.1c-3 .2-3.1.2-.6.6m114.2 9.8c0 6 .1 8.4.3 5.2s.2-8.1 0-11-.3-.3-.3 5.8m-455.1-5c0 2.7.2 3.8.4 2.2.2-1.5.2-3.7 0-5-.2-1.2-.4 0-.4 2.8m261.8-2.9c0 1.1.3 1.4.6.6.3-.7.2-1.6-.1-1.9-.3-.4-.6.2-.5 1.3m26.1.4c0 1.4.2 1.9.5 1.2.2-.6.2-1.8 0-2.5-.3-.6-.5-.1-.5 1.3m22.2 8.5c0 6 .1 8.4.3 5.2s.2-8.1 0-11-.3-.3-.3 5.8m133.7-8.9c0 1.1.3 1.4.6.6.3-.7.2-1.6-.1-1.9-.3-.4-.6.2-.5 1.3m-535.7 33.9c0 18.7.2 26.2.3 16.7.2-9.5.2-24.8 0-34-.1-9.2-.3-1.4-.3 17.3"/><path d="M708.1 84.6c0 1.1.3 1.4.6.6.3-.7.2-1.6-.1-1.9-.3-.4-.6.2-.5 1.3m-352.8 2.9c0 2.2.2 3 .4 1.7.2-1.2.2-3 0-4-.3-.9-.5.1-.4 2.3m-128.2-.9c0 1.1.3 1.4.6.6.3-.7.2-1.6-.1-1.9-.3-.4-.6.2-.5 1.3m90.2 1.9c0 2.2.2 3 .4 1.7.2-1.2.2-3 0-4-.3-.9-.5.1-.4 2.3m207.5-2.8c2.8.2 7.6.2 10.5 0 2.8-.2.5-.3-5.3-.3s-8.1.1-5.2.3M830.3 93c0 4.7.2 6.6.4 4.2.2-2.3.2-6.1 0-8.5-.2-2.3-.4-.4-.4 4.3m-536 0c0 4.1.2 5.8.4 3.7.2-2 .2-5.4 0-7.5-.2-2-.4-.3-.4 3.8m152.8-5.4c0 1.1.3 1.4.6.6.3-.7.2-1.6-.1-1.9-.3-.4-.6.2-.5 1.3m52.3 26.9c0 15.9.2 22.3.3 14.2.2-8.2.2-21.2 0-29-.1-7.8-.3-1.2-.3 14.8m246.8-26c0 1.6.2 2.2.5 1.2.2-.9.2-2.3 0-3-.3-.6-.5.1-.5 1.8m27.2 26.5c0 16.2.2 22.9.3 14.7.2-8.1.2-21.3 0-29.5-.1-8.1-.3-1.4-.3 14.8M305.3 90.5c0 2.2.2 3 .4 1.7.2-1.2.2-3 0-4-.3-.9-.5.1-.4 2.3m52 0c0 2.2.2 3 .4 1.7.2-1.2.2-3 0-4-.3-.9-.5.1-.4 2.3m379.8-.9c0 1.1.3 1.4.6.6.3-.7.2-1.6-.1-1.9-.3-.4-.6.2-.5 1.3m80.7-.9c.7.3 1.6.2 1.9-.1.4-.3-.2-.6-1.3-.5-1.1 0-1.4.3-.6.6M273.4 115c0 14.6.2 20.5.3 13.2.2-7.2.2-19.2 0-26.5-.1-7.2-.3-1.3-.3 13.3m182.7-24.4c0 1.1.3 1.4.6.6.3-.7.2-1.6-.1-1.9-.3-.4-.6.2-.5 1.3m122 0c0 1.1.3 1.4.6.6.3-.7.2-1.6-.1-1.9-.3-.4-.6.2-.5 1.3m77.3 24.4c0 14.6.2 20.5.3 13.2.2-7.2.2-19.2 0-26.5-.1-7.2-.3-1.3-.3 13.3m184.9-21c0 3 .2 4.3.4 2.7.2-1.5.2-3.9 0-5.5-.2-1.5-.4-.2-.4 2.8m-612.2-2.4c0 1.1.3 1.4.6.6.3-.7.2-1.6-.1-1.9-.3-.4-.6.2-.5 1.3m79.2 1.9c0 2.2.2 3 .4 1.7.2-1.2.2-3 0-4-.3-.9-.5.1-.4 2.3M792.5 125c0 19.5.1 27.5.2 17.8.2-9.8.2-25.8 0-35.5-.1-9.8-.2-1.8-.2 17.7M520.3 97c0 3.6.2 5 .4 3.2.2-1.7.2-4.7 0-6.5-.2-1.7-.4-.3-.4 3.3m-72.2-3.4c0 1.1.3 1.4.6.6.3-.7.2-1.6-.1-1.9-.3-.4-.6.2-.5 1.3M589.2 95c0 1.4.2 1.9.5 1.2.2-.6.2-1.8 0-2.5-.3-.6-.5-.1-.5 1.3m107.2 8c0 5.8.1 8.1.3 5.2.2-2.8.2-7.6 0-10.5-.2-2.8-.3-.5-.3 5.3m32.7-7.8c-.1 3.4 1 3.5 3.5.5l1.9-2.2-2.2 1.8c-2.1 1.8-2.1 1.8-2.6-.5-.4-2.1-.4-2-.6.4M577.2 97c0 1.9.2 2.7.5 1.7.2-.9.2-2.5 0-3.5-.3-.9-.5-.1-.5 1.8m-137 0c0 1.4.2 1.9.5 1.2.2-.6.2-1.8 0-2.5-.3-.6-.5-.1-.5 1.3m16.9-.4c0 1.1.3 1.4.6.6.3-.7.2-1.6-.1-1.9-.3-.4-.6.2-.5 1.3m276.3.6-1.9 2.3 2.3-1.9c2.1-1.8 2.7-2.6 1.9-2.6-.2 0-1.2 1-2.3 2.2m-367.1 6.3c0 4.4.2 6.1.4 3.7.2-2.3.2-5.9 0-8-.2-2-.4-.1-.4 4.3m213.1 3.5c0 6.3.1 8.9.3 5.7.2-3.1.2-8.3 0-11.5-.2-3.1-.3-.5-.3 5.8m-263 14c0 12.9.2 18.2.3 11.7.2-6.4.2-17 0-23.5-.1-6.4-.3-1.1-.3 11.8m37.9-15.5c0 4.4.2 6.1.4 3.7.2-2.3.2-5.9 0-8-.2-2-.4-.1-.4 4.3m22-4c0 2.2.2 3 .4 1.7.2-1.2.2-3 0-4-.3-.9-.5.1-.4 2.3m72.8-1.9c0 1.1.3 1.4.6.6.3-.7.2-1.6-.1-1.9-.3-.4-.6.2-.5 1.3m271.1 2.4c0 1.9.2 2.7.5 1.7.2-.9.2-2.5 0-3.5-.3-.9-.5-.1-.5 1.8m-507.1-.4c0 1.1.3 1.4.6.6.3-.7.2-1.6-.1-1.9-.3-.4-.6.2-.5 1.3m386 0c0 1.1.3 1.4.6.6.3-.7.2-1.6-.1-1.9-.3-.4-.6.2-.5 1.3M326.3 105c0 2.5.2 3.5.4 2.2.2-1.2.2-3.2 0-4.5-.2-1.2-.4-.2-.4 2.3m111.3-2.5c-.9 2.6-.7 3.2.5 1.2.6-1 .9-2.1.6-2.3-.2-.3-.7.2-1.1 1.1m20.5.1c0 1.1.3 1.4.6.6.3-.7.2-1.6-.1-1.9-.3-.4-.6.2-.5 1.3m-16.9 1.9c0 1.6.2 2.2.5 1.2.2-.9.2-2.3 0-3-.3-.6-.5.1-.5 1.8m245.2 6c0 4.9.1 7.1.3 4.8s.2-6.4 0-9-.3-.8-.3 4.2m-236.3-4.9c0 1.1.3 1.4.6.6.3-.7.2-1.6-.1-1.9-.3-.4-.6.2-.5 1.3m-236 1c0 1.1.3 1.4.6.6.3-.7.2-1.6-.1-1.9-.3-.4-.6.2-.5 1.3m225.1.4c0 1.4.2 1.9.5 1.2.2-.6.2-1.8 0-2.5-.3-.6-.5-.1-.5 1.3m-215.1.6c0 1.1.3 1.4.6.6.3-.7.2-1.6-.1-1.9-.3-.4-.6.2-.5 1.3m80.2 3.4c0 3 .2 4.3.4 2.7.2-1.5.2-3.9 0-5.5-.2-1.5-.4-.2-.4 2.8m294 .5c0 3.3.2 4.5.4 2.7s.2-4.5 0-6-.4 0-.4 3.3m-242-1c0 2.2.2 3 .4 1.7.2-1.2.2-3 0-4-.3-.9-.5.1-.4 2.3m102.8-1.9c0 1.1.3 1.4.6.6.3-.7.2-1.6-.1-1.9-.3-.4-.6.2-.5 1.3m118.2 5.9c0 4.4.2 6.1.4 3.7.2-2.3.2-5.9 0-8-.2-2-.4-.1-.4 4.3m131.1 15c0 12.1.2 16.9.3 10.7.2-6.2.2-16.1 0-22-.1-5.9-.3-.8-.3 11.3M819.3 116c0 4.7.2 6.6.4 4.2.2-2.3.2-6.1 0-8.5-.2-2.3-.4-.4-.4 4.3m-585.7-5.5c-.3.8-.1 1.5.4 1.5.6 0 1-.7 1-1.5s-.2-1.5-.4-1.5-.6.7-1 1.5m72.7 2.5c0 2.5.2 3.5.4 2.2.2-1.2.2-3.2 0-4.5-.2-1.2-.4-.2-.4 2.3m368.1 9c0 7.4.1 10.5.3 6.7.2-3.7.2-9.7 0-13.5-.2-3.7-.3-.6-.3 6.8m-223.3-10.4c0 1.1.3 1.4.6.6.3-.7.2-1.6-.1-1.9-.3-.4-.6.2-.5 1.3m388.2 4.4c0 3.6.2 5 .4 3.2.2-1.7.2-4.7 0-6.5-.2-1.7-.4-.3-.4 3.3m-626.2-3.4c0 1.1.3 1.4.6.6.3-.7.2-1.6-.1-1.9-.3-.4-.6.2-.5 1.3m229.1.4c0 1.4.2 1.9.5 1.2.2-.6.2-1.8 0-2.5-.3-.6-.5-.1-.5 1.3m387.2 6.5c0 4.9.1 7.1.3 4.8s.2-6.4 0-9-.3-.8-.3 4.2m-91.4-5c1.3 1.4 2.6 2.5 2.8 2.5.3 0-.5-1.1-1.8-2.5s-2.6-2.5-2.8-2.5c-.3 0 .5 1.1 1.8 2.5m-297.8.5c0 1.4.2 1.9.5 1.2.2-.6.2-1.8 0-2.5-.3-.6-.5-.1-.5 1.3m19.9-.4c0 1.1.3 1.4.6.6.3-.7.2-1.6-.1-1.9-.3-.4-.6.2-.5 1.3m50.2-.1c-.3.9-.3 1.8-.1 2.1.3.3.8-.4 1.1-1.6.6-2.3-.1-2.7-1-.5m-294.2 1.1c0 1.1.3 1.4.6.6.3-.7.2-1.6-.1-1.9-.3-.4-.6.2-.5 1.3m504.2 3.9c0 3.3.2 4.5.4 2.7s.2-4.5 0-6-.4 0-.4 3.3m101.1 5c0 6 .1 8.4.3 5.2s.2-8.1 0-11-.3-.3-.3 5.8m-281.3-7.9c0 1.1.3 1.4.6.6.3-.7.2-1.6-.1-1.9-.3-.4-.6.2-.5 1.3m-326 1c0 1.1.3 1.4.6.6.3-.7.2-1.6-.1-1.9-.3-.4-.6.2-.5 1.3m30 0c0 1.1.3 1.4.6.6.3-.7.2-1.6-.1-1.9-.3-.4-.6.2-.5 1.3m208 0c0 1.1.3 1.4.6.6.3-.7.2-1.6-.1-1.9-.3-.4-.6.2-.5 1.3m-30 1c0 1.1.3 1.4.6.6.3-.7.2-1.6-.1-1.9-.3-.4-.6.2-.5 1.3m254.3 8.9c0 6 .1 8.4.3 5.2s.2-8.1 0-11-.3-.3-.3 5.8m53.6-10.1c0 .2.8 1 1.8 1.7 1.5 1.3 1.6 1.2.3-.4s-2.1-2.1-2.1-1.3m17 3.1c1.3 1.4 2.6 2.5 2.8 2.5.3 0-.5-1.1-1.8-2.5s-2.6-2.5-2.8-2.5c-.3 0 .5 1.1 1.8 2.5m-529.9.1c0 1.1.3 1.4.6.6.3-.7.2-1.6-.1-1.9-.3-.4-.6.2-.5 1.3m17 0c0 1.1.3 1.4.6.6.3-.7.2-1.6-.1-1.9-.3-.4-.6.2-.5 1.3m119.3 8.9c0 6 .1 8.4.3 5.2s.2-8.1 0-11-.3-.3-.3 5.8m79.6-9.3c0 1.2.7 1.8 2.3 1.7 1.5 0 1.7-.2.7-.6-.8-.3-1.8-1.1-2.2-1.7-.5-.7-.8-.4-.8.6m10.1.4c0 1.1.3 1.4.6.6.3-.7.2-1.6-.1-1.9-.3-.4-.6.2-.5 1.3m18 0c0 1.1.3 1.4.6.6.3-.7.2-1.6-.1-1.9-.3-.4-.6.2-.5 1.3m-246 2c0 1.1.3 1.4.6.6.3-.7.2-1.6-.1-1.9-.3-.4-.6.2-.5 1.3m140.3 6.9c0 4.9.1 7.1.3 4.8s.2-6.4 0-9-.3-.8-.3 4.2m-101.3-5.9c0 1.1.3 1.4.6.6.3-.7.2-1.6-.1-1.9-.3-.4-.6.2-.5 1.3m49.2 6.4c0 4.7.2 6.6.4 4.2.2-2.3.2-6.1 0-8.5-.2-2.3-.4-.4-.4 4.3m149.9-6c0 1.4.2 1.9.5 1.2.2-.6.2-1.8 0-2.5-.3-.6-.5-.1-.5 1.3m67.1 4c0 3.6.2 5 .4 3.2.2-1.7.2-4.7 0-6.5-.2-1.7-.4-.3-.4 3.3m-302.2-2.4c0 1.1.3 1.4.6.6.3-.7.2-1.6-.1-1.9-.3-.4-.6.2-.5 1.3m87.2 4.4c0 3.6.2 5 .4 3.2.2-1.7.2-4.7 0-6.5-.2-1.7-.4-.3-.4 3.3m156.8-3.4c0 1.1.3 1.4.6.6.3-.7.2-1.6-.1-1.9-.3-.4-.6.2-.5 1.3m-246 1c0 1.1.3 1.4.6.6.3-.7.2-1.6-.1-1.9-.3-.4-.6.2-.5 1.3m12 0c0 1.1.3 1.4.6.6.3-.7.2-1.6-.1-1.9-.3-.4-.6.2-.5 1.3m352.2 2.4c0 2.5.2 3.5.4 2.2.2-1.2.2-3.2 0-4.5-.2-1.2-.4-.2-.4 2.3m46.7-2.6c0 .2.8 1 1.8 1.7 1.5 1.3 1.6 1.2.3-.4s-2.1-2.1-2.1-1.3m-394.9 2.2c0 1.1.3 1.4.6.6.3-.7.2-1.6-.1-1.9-.3-.4-.6.2-.5 1.3m279.3 6.9c0 4.9.1 7.1.3 4.8s.2-6.4 0-9-.3-.8-.3 4.2m86.9-4c0 2.7.2 3.8.4 2.2.2-1.5.2-3.7 0-5-.2-1.2-.4 0-.4 2.8m-144.2-1.9c0 1.1.3 1.4.6.6.3-.7.2-1.6-.1-1.9-.3-.4-.6.2-.5 1.3m135.1.4c0 1.4.2 1.9.5 1.2.2-.6.2-1.8 0-2.5-.3-.6-.5-.1-.5 1.3m33 0c0 1.4.2 1.9.5 1.2.2-.6.2-1.8 0-2.5-.3-.6-.5-.1-.5 1.3m73.2 7.5c0 5.5.1 7.6.3 4.7s.2-7.4 0-10-.3-.2-.3 5.3m-273.1-7.8c.9.2 2.3.2 3 0 .6-.3-.1-.5-1.8-.5-1.6 0-2.2.2-1.2.5m155.9 2.3c0 1.9.2 2.7.5 1.7.2-.9.2-2.5 0-3.5-.3-.9-.5-.1-.5 1.8m35.1 1.5c0 2.7.2 3.8.4 2.2.2-1.5.2-3.7 0-5-.2-1.2-.4 0-.4 2.8m97.1 5c0 5.5.1 7.6.3 4.7s.2-7.4 0-10-.3-.2-.3 5.3m-481.3-6.9c0 1.1.3 1.4.6.6.3-.7.2-1.6-.1-1.9-.3-.4-.6.2-.5 1.3m23 0c0 1.1.3 1.4.6.6.3-.7.2-1.6-.1-1.9-.3-.4-.6.2-.5 1.3m211 1c0 1.1.3 1.4.6.6.3-.7.2-1.6-.1-1.9-.3-.4-.6.2-.5 1.3m-232.5 1.1c-.6 1.4-.5 1.5.5.6.7-.7 1-1.5.7-1.8s-.9.2-1.2 1.2m214.6.3c0 1.4.2 1.9.5 1.2.2-.6.2-1.8 0-2.5-.3-.6-.5-.1-.5 1.3m-40.1 1.6c0 1.1.3 1.4.6.6.3-.7.2-1.6-.1-1.9-.3-.4-.6.2-.5 1.3m333 0c0 1.1.3 1.4.6.6.3-.7.2-1.6-.1-1.9-.3-.4-.6.2-.5 1.3m-283 1c0 1.1.3 1.4.6.6.3-.7.2-1.6-.1-1.9-.3-.4-.6.2-.5 1.3m374.2 2.4c0 2.5.2 3.5.4 2.2.2-1.2.2-3.2 0-4.5-.2-1.2-.4-.2-.4 2.3m-422.2-1.4c0 1.1.3 1.4.6.6.3-.7.2-1.6-.1-1.9-.3-.4-.6.2-.5 1.3m11 0c0 1.1.3 1.4.6.6.3-.7.2-1.6-.1-1.9-.3-.4-.6.2-.5 1.3m-51.8 3.4c0 2.5.2 3.5.4 2.2.2-1.2.2-3.2 0-4.5-.2-1.2-.4-.2-.4 2.3m97.9-2c0 1.4.2 1.9.5 1.2.2-.6.2-1.8 0-2.5-.3-.6-.5-.1-.5 1.3m116.9-.4c0 1.1.3 1.4.6.6.3-.7.2-1.6-.1-1.9-.3-.4-.6.2-.5 1.3m51.2 6.4c0 4.7.2 6.6.4 4.2.2-2.3.2-6.1 0-8.5-.2-2.3-.4-.4-.4 4.3m-10-2c0 3 .2 4.3.4 2.7.2-1.5.2-3.9 0-5.5-.2-1.5-.4-.2-.4 2.8m107.1 4c0 5.2.1 7.4.3 4.7.2-2.6.2-6.8 0-9.5-.2-2.6-.3-.4-.3 4.8m-423.3-6.4c0 1.1.3 1.4.6.6.3-.7.2-1.6-.1-1.9-.3-.4-.6.2-.5 1.3m140.1.4c0 1.4.2 1.9.5 1.2.2-.6.2-1.8 0-2.5-.3-.6-.5-.1-.5 1.3m292.9-.4c0 1.1.3 1.4.6.6.3-.7.2-1.6-.1-1.9-.3-.4-.6.2-.5 1.3M404.3 146c0 3 .2 4.3.4 2.7.2-1.5.2-3.9 0-5.5-.2-1.5-.4-.2-.4 2.8m51.9-3c0 1.4.2 1.9.5 1.2.2-.6.2-1.8 0-2.5-.3-.6-.5-.1-.5 1.3m153.5-.1c-.4 1.7-.3 2.1.5 1.3.5-.5.8-1.6.6-2.3-.3-.8-.7-.3-1.1 1m139.4-.3c0 1.1.3 1.4.6.6.3-.7.2-1.6-.1-1.9-.3-.4-.6.2-.5 1.3m-499 1c0 1.1.3 1.4.6.6.3-.7.2-1.6-.1-1.9-.3-.4-.6.2-.5 1.3m54 0c0 1.1.3 1.4.6.6.3-.7.2-1.6-.1-1.9-.3-.4-.6.2-.5 1.3m433 0c0 1.1.3 1.4.6.6.3-.7.2-1.6-.1-1.9-.3-.4-.6.2-.5 1.3m-517 1c0 1.1.3 1.4.6.6.3-.7.2-1.6-.1-1.9-.3-.4-.6.2-.5 1.3m186.1 1.4c0 1.9.2 2.7.5 1.7.2-.9.2-2.5 0-3.5-.3-.9-.5-.1-.5 1.8m11-1c0 1.4.2 1.9.5 1.2.2-.6.2-1.8 0-2.5-.3-.6-.5-.1-.5 1.3m27 0c0 1.4.2 1.9.5 1.2.2-.6.2-1.8 0-2.5-.3-.6-.5-.1-.5 1.3m21 1c0 1.4.2 1.9.5 1.2.2-.6.2-1.8 0-2.5-.3-.6-.5-.1-.5 1.3m292.9.6c0 1.1.3 1.4.6.6.3-.7.2-1.6-.1-1.9-.3-.4-.6.2-.5 1.3m-241.3.1c.6.2 1.8.2 2.5 0 .6-.3.1-.5-1.3-.5s-1.9.2-1.2.5m233.4 1.3c0 1.4.2 1.9.5 1.2.2-.6.2-1.8 0-2.5-.3-.6-.5-.1-.5 1.3m71 0c0 1.4.2 1.9.5 1.2.2-.6.2-1.8 0-2.5-.3-.6-.5-.1-.5 1.3m-478 1c0 1.4.2 1.9.5 1.2.2-.6.2-1.8 0-2.5-.3-.6-.5-.1-.5 1.3m321.1-1.3c.9.2 2.3.2 3 0 .6-.3-.1-.5-1.8-.5-1.6 0-2.2.2-1.2.5m-324.2 2.6c-1.3 2.1-1.2 2.1.5.5 1-1 1.6-2 1.3-2.2-.3-.3-1.1.5-1.8 1.7m87.1-.3c0 1.4.2 1.9.5 1.2.2-.6.2-1.8 0-2.5-.3-.6-.5-.1-.5 1.3m109.9-.4c0 1.1.3 1.4.6.6.3-.7.2-1.6-.1-1.9-.3-.4-.6.2-.5 1.3m110.9.9c1.3 1.4 2.6 2.5 2.8 2.5.3 0-.5-1.1-1.8-2.5s-2.6-2.5-2.8-2.5c-.3 0 .5 1.1 1.8 2.5m2.5-.5c1 1.1 2 2 2.3 2s-.3-.9-1.3-2-2-2-2.3-2 .3.9 1.3 2m30.4-.3c-1.3 1.6-1.2 1.7.4.4.9-.7 1.7-1.5 1.7-1.7 0-.8-.8-.3-2.1 1.3m-456.9.2c0 .6.4 1.3 1 1.6s.7-.1.4-.9c-.7-1.8-1.4-2.1-1.4-.7m615.3 4.1c0 3 .2 4.3.4 2.7.2-1.5.2-3.9 0-5.5-.2-1.5-.4-.2-.4 2.8M222 150.9c0 .6.4 1.3 1 1.6s.7-.1.4-.9c-.7-1.8-1.4-2.1-1.4-.7m537.1.7c0 1.1.3 1.4.6.6.3-.7.2-1.6-.1-1.9-.3-.4-.6.2-.5 1.3m-352.1.3c0 .6.4 1.3 1 1.6s.7-.1.4-.9c-.7-1.8-1.4-2.1-1.4-.7m59.2 1.1c0 1.4.2 1.9.5 1.2.2-.6.2-1.8 0-2.5-.3-.6-.5-.1-.5 1.3m357 .6c.9.9 2.1 1.5 2.7 1.3s-.2-1-1.7-1.7c-2.5-1.1-2.5-1.1-1 .4m-591.7.4-3 .8 2.7.1c1.5 0 3-.4 3.3-.9.3-.6.5-.9.3-.9-.2.1-1.6.5-3.3.9m42.5-.6c0 .2.8 1 1.8 1.7 1.5 1.3 1.6 1.2.3-.4s-2.1-2.1-2.1-1.3m131 0c0 .2.8 1 1.8 1.7 1.5 1.3 1.6 1.2.3-.4s-2.1-2.1-2.1-1.3m415 0c0 .2.8 1 1.8 1.7 1.5 1.3 1.6 1.2.3-.4s-2.1-2.1-2.1-1.3m-540.2 1.3c.7.3 1.6.2 1.9-.1.4-.3-.2-.6-1.3-.5-1.1 0-1.4.3-.6.6m39 0c1.7.2 4.7.2 6.5 0 1.7-.2.3-.4-3.3-.4s-5 .2-3.2.4m48.9 0c1.8.2 5 .2 7 0 2.1-.2.7-.4-3.2-.4-3.8 0-5.5.2-3.8.4m43.1 0c.7.3 1.6.2 1.9-.1.4-.3-.2-.6-1.3-.5-1.1 0-1.4.3-.6.6m99.5 0c.9.2 2.5.2 3.5 0 .9-.3.1-.5-1.8-.5s-2.7.2-1.7.5m153.5 0c1.2.2 3 .2 4 0 .9-.3-.1-.5-2.3-.4-2.2 0-3 .2-1.7.4m82 0c.7.3 1.6.2 1.9-.1.4-.3-.2-.6-1.3-.5-1.1 0-1.4.3-.6.6m32 0c.7.3 1.6.2 1.9-.1.4-.3-.2-.6-1.3-.5-1.1 0-1.4.3-.6.6M426.2 158c0 1.4.2 1.9.5 1.2.2-.6.2-1.8 0-2.5-.3-.6-.5-.1-.5 1.3m334 0c0 1.4.2 1.9.5 1.2.2-.6.2-1.8 0-2.5-.3-.6-.5-.1-.5 1.3m-129.1.6c0 1.1.3 1.4.6.6.3-.7.2-1.6-.1-1.9-.3-.4-.6.2-.5 1.3M366 160.5c1.3 1.4 2.6 2.5 2.8 2.5.3 0-.5-1.1-1.8-2.5s-2.6-2.5-2.8-2.5c-.3 0 .5 1.1 1.8 2.5m-72.9.8c-1.3 2.1-1.2 2.1.5.5 1-1 1.6-2 1.3-2.2-.3-.3-1.1.5-1.8 1.7m21.9-1.9c0 .2.8 1 1.8 1.7 1.5 1.3 1.6 1.2.3-.4s-2.1-2.1-2.1-1.3m149.9 1.3c-1.3 1.6-1.2 1.7.4.4s2.1-2.1 1.3-2.1c-.2 0-1 .8-1.7 1.7m251.1-1.3c0 .2.8 1 1.8 1.7 1.5 1.3 1.6 1.2.3-.4s-2.1-2.1-2.1-1.3m-191.7 4.3c1.5.2 3.7.2 5 0 1.2-.2 0-.4-2.8-.4-2.7 0-3.8.2-2.2.4m12.5 0c.7.3 1.6.2 1.9-.1.4-.3-.2-.6-1.3-.5-1.1 0-1.4.3-.6.6m87 2c.7.3 1.6.2 1.9-.1.4-.3-.2-.6-1.3-.5-1.1 0-1.4.3-.6.6"/></g><path fill="#404040" d="M604.3 65.7c.9.2 2.3.2 3 0 .6-.3-.1-.5-1.8-.5-1.6 0-2.2.2-1.2.5M525 67l-5.5.7 5 .1c2.8.1 5.7-.3 6.5-.8s1.1-.9.5-.8c-.5.1-3.5.4-6.5.8m-23.5 1c-.3.5-.3 1 .2 1 .4 0 .2.4-.6.9-.7.5-.9 1.1-.4 1.4s1.4-.3 2.1-1.3c.7-1.1.8-2.1.2-2.5-.5-.3-1.1-.1-1.5.5m-185 .9c-.3.5-.2 1.2.3 1.5s.9-.1.9-.9c0-1.7-.3-1.9-1.2-.6m275.4-.4c-.1.3-.2.8-.3 1.2-.1.5-.5 1.5-1 2.3-.7 1.2-.6 1.3.4.3 1.3-1.2 2.3-4.3 1.4-4.3-.2 0-.5.2-.5.5m-336.5 2.2c.2 1 .6 1.7 1 1.6 1.5-.3 1.6-1.1.2-2.2-1.2-1-1.4-.9-1.2.6m19.1-.8c-.3.5-.2 1.2.3 1.5s.9-.1.9-.9c0-1.7-.3-1.9-1.2-.6m167.1-.1c-.3.6.1 1.5.8 2.1.8.7 1.7.8 2 .3.3-.6-.1-1.5-.8-2.1-.8-.7-1.7-.8-2-.3m330.9.1c-.3.5-.2 1.2.3 1.5s.9-.1.9-.9c0-1.7-.3-1.9-1.2-.6m73.9.8c.2 1 .6 1.7 1 1.6 1.5-.3 1.6-1.1.2-2.2-1.2-1-1.4-.9-1.2.6m-599.9.2c-.3.5-.2 1.2.3 1.5s.9-.1.9-.9c0-1.7-.3-1.9-1.2-.6m61.1.4c.3 1 .9 1.5 1.2 1.2s0-1.1-.7-1.8c-1-.9-1.1-.8-.5.6m228-.5c-.2.4-.1 1.4.5 2.2.7 1.2.9 1 .9-.8 0-2.3-.5-2.8-1.4-1.4m141.9.1c-.3.5-.2 1.2.3 1.5s.9-.1.9-.9c0-1.7-.3-1.9-1.2-.6m103.1.3c.3.5 1 .6 1.5.3 1.3-.9 1.1-1.2-.6-1.2-.8 0-1.2.4-.9.9m46.7-.5c.9.2 2.3.2 3 0 .6-.3-.1-.5-1.8-.5-1.6 0-2.2.2-1.2.5M206 72.5c-.6.7-1 2.6-.8 4.2.4 2.5.5 2.6 1.2.8.4-1.1 1.2-2.8 1.7-3.7 1.1-2.2-.5-3.2-2.1-1.3m78.6 0c-.9 2.6-.7 3.2.5 1.2.6-1 .9-2.1.6-2.3-.2-.3-.7.2-1.1 1.1m-11.3 8.3c-.1 7.1 0 7.9.7 4.7 1.1-5.1 1.2-12.2.2-12.9-.4-.2-.8 3.5-.9 8.2m45.2-7.6c-.4.9-.4 4-.2 6.9l.3 5.4.2-5.7c.2-5 .4-5.7 2-5.2 1 .4 1.3.2.7-.3-.5-.4-1.3-1.2-1.7-1.7s-1-.2-1.3.6m369.2-.5c-.4.3-.7 1.6-.6 2.7 0 1.9.1 1.9 1-.3 1-2.4.8-3.6-.4-2.4m83.4 38.5c-.1 21.6 0 39 .4 38.7.7-.8 1.1-76.6.4-77.4-.3-.3-.7 17.1-.8 38.7m11.6-38.5c-.4.3-.7 1.1-.7 1.7s.5.5 1.2-.2c.6-.6.9-1.4.7-1.7-.3-.3-.9-.2-1.2.2m-538.2 1.2c-.3.5-.2 1.2.3 1.5s.9-.1.9-.9c0-1.7-.3-1.9-1.2-.6M356.2 78c0 3 .3 6.4.8 7.5 1.1 2.6 1.1-5.6 0-10-.6-2.5-.8-2-.8 2.5m13.5-3.9c.7.7 1.5 1 1.8.7s-.2-.9-1.2-1.2c-1.4-.6-1.5-.5-.6.5m129.6 5.4c0 3.8.2 5.3.4 3.2.2-2 .2-5.2 0-7-.2-1.7-.4-.1-.4 3.8m121.2-5.4c-.4.6-.4 1.3-.1 1.6.3.4.6.1.6-.6s.5-.9 1.2-.5.8.3.4-.4c-.9-1.5-1.3-1.5-2.1-.1m56.2 2.6c.8 5 1.3 5.5 1.3 1 0-2-.4-3.8-.9-4.2-.6-.3-.7 1-.4 3.2m-91.3-1.6c-.8 1.4 1.4 1.9 2.5.6.8-1 .7-1.4-.5-1.4-.8 0-1.7.4-2 .8m155.6-.7c0 .2.8 1 1.8 1.7 1.5 1.3 1.6 1.2.3-.4s-2.1-2.1-2.1-1.3M368.2 78c0 1.9.2 2.7.5 1.7.2-.9.2-2.5 0-3.5-.3-.9-.5-.1-.5 1.8m-124.6-.7c.3 1 .9 1.5 1.2 1.2s0-1.1-.7-1.8c-1-.9-1.1-.8-.5.6m178.9-.4c-.3.5-.2 1.2.3 1.5s.9-.1.9-.9c0-1.7-.3-1.9-1.2-.6m28 1.1c1 1.1 2 2 2.3 2s-.3-.9-1.3-2-2-2-2.3-2 .3.9 1.3 2m338.6-.3c.7 1.2 1.5 2 1.8 1.7.3-.2-.3-1.2-1.3-2.2-1.7-1.6-1.8-1.6-.5.5m-482.9 3.8c0 2.7.3 5.9.8 7 .7 1.7.9 1.6.9-1 0-1.7-.4-4.8-.8-7l-.9-4zm289.7-2.8c-1.3 1.6-1.2 1.7.4.4s2.1-2.1 1.3-2.1c-.2 0-1 .8-1.7 1.7m59.4-.2c-.3.9-.3 1.9.1 2.2.3.4.6.1.6-.6s.4-.9 1-.6.7-.1.4-.9c-.8-2-1.3-2-2.1-.1m64.2-.5c-.3.6.1.7.9.4 1.8-.7 2.1-1.4.7-1.4-.6 0-1.3.4-1.6 1m4.3-.3c.6.2 1.8.2 2.5 0 .6-.3.1-.5-1.3-.5s-1.9.2-1.2.5m-458.9 3.5c.4 2.8.6 2.9.9.9.2-1.3 0-2.7-.5-3.2-.6-.6-.7.3-.4 2.3m111.2-1.6c0 1.1.3 1.4.6.6.3-.7.2-1.6-.1-1.9-.3-.4-.6.2-.5 1.3m-158 1c0 1.1.3 1.4.6.6.3-.7.2-1.6-.1-1.9-.3-.4-.6.2-.5 1.3m24.5-.3c.3 1 .9 1.5 1.2 1.2s0-1.1-.7-1.8c-1-.9-1.1-.8-.5.6m178.4-.4c0 .6.4 1.3 1 1.6s.7-.1.4-.9c-.7-1.8-1.4-2.1-1.4-.7m161.6-.1c-.2.4-.1 1.4.4 2.2.7 1.1.9.9.7-.8-.1-2.4-.3-2.6-1.1-1.4m230.2-.1c1.2.2 3 .2 4 0 .9-.3-.1-.5-2.3-.4-2.2 0-3 .2-1.7.4m18.6.7c-.3.8-.4 2.3-.1 3.3q.45 1.8.6-.9c.1-2.3.6-2.7 3.9-3.1l3.7-.4-3.8-.1c-2.5-.1-4 .3-4.3 1.2m-624.7.3c-.4.3-.7 1.1-.7 1.7s.5.5 1.2-.2c.6-.6.9-1.4.7-1.7-.3-.3-.9-.2-1.2.2M856.2 82c0 1.4.2 1.9.5 1.2.2-.6.2-1.8 0-2.5-.3-.6-.5-.1-.5 1.3m-563 1.5c0 1.6.2 2.2.5 1.2.2-.9.2-2.3 0-3-.3-.6-.5.1-.5 1.8m394.2 8c0 6 .1 8.4.3 5.2s.2-8.1 0-11-.3-.3-.3 5.8M748 81.4c0 .2.8 1 1.8 1.7 1.5 1.3 1.6 1.2.3-.4s-2.1-2.1-2.1-1.3m-506.4 1.9c.3 1 .9 1.5 1.2 1.2s0-1.1-.7-1.8c-1-.9-1.1-.8-.5.6m299.3.4c-1.3 1.6-1.2 1.7.4.4.9-.7 1.7-1.5 1.7-1.7 0-.8-.8-.3-2.1 1.3m155.4 3.8c0 3.3.2 4.5.4 2.7s.2-4.5 0-6-.4 0-.4 3.3m10.5-4.8c.7.3 1.6.2 1.9-.1.4-.3-.2-.6-1.3-.5-1.1 0-1.4.3-.6.6m84.5 3.3c0 2.5.2 3.5.4 2.2.2-1.2.2-3.2 0-4.5-.2-1.2-.4-.2-.4 2.3m-505.8 31.5c0 19.2.1 27 .2 17.2.2-9.8.2-25.6 0-35-.1-9.5-.3-1.5-.2 17.8m161.6-32.9c0 1.1.3 1.4.6.6.3-.7.2-1.6-.1-1.9-.3-.4-.6.2-.5 1.3m-239.6.4c-.3.5-.1 1 .4 1 .6 0 1.1-.5 1.1-1 0-.6-.2-1-.4-1-.3 0-.8.4-1.1 1m11.6.6c0 1.1.3 1.4.6.6.3-.7.2-1.6-.1-1.9-.3-.4-.6.2-.5 1.3m199.9-.7c0 .6.4 1.3 1 1.6s.7-.1.4-.9c-.7-1.8-1.4-2.1-1.4-.7m-179 .6c0 .5.5 1.7 1 2.5s1 1 1 .5c0-.6-.5-1.7-1-2.5s-1-1.1-1-.5M519.2 88c0 1.9.2 2.7.5 1.7.2-.9.2-2.5 0-3.5-.3-.9-.5-.1-.5 1.8m61.4-1.7c.3 1 .9 1.5 1.2 1.2s0-1.1-.7-1.8c-1-.9-1.1-.8-.5.6m23.8.9-1.9 2.3 2.3-1.9c2.1-1.8 2.7-2.6 1.9-2.6-.2 0-1.2 1-2.3 2.2m50.8-.2c0 1.4.2 1.9.5 1.2.2-.6.2-1.8 0-2.5-.3-.6-.5-.1-.5 1.3m54.1 8c-.1 5.2.3 15.3.6 22.5l.8 13V117c.1-7.4-.2-17.6-.6-22.5l-.8-9zm19.1-7.6c-.3.8-.4 2.5-.1 3.8.3 1.8.5 1.6.6-.9.1-2.6.6-3.2 2.9-3.6l2.7-.4-2.8-.2c-1.6 0-3 .5-3.3 1.3m7.3-.7c-1 .9-.9 5.1.1 5.7.4.3.9-1.1.9-3 .1-3.6 0-3.8-1-2.7m-527 1c-.4.3-.7 1.1-.7 1.7s.5.5 1.2-.2c.6-.6.9-1.4.7-1.7-.3-.3-.9-.2-1.2.2m209.3-.2c0 .5.5 1.7 1 2.5s1 1 1 .5c0-.6-.5-1.7-1-2.5s-1-1.1-1-.5m20.1 1.1c0 1.1.3 1.4.6.6.3-.7.2-1.6-.1-1.9-.3-.4-.6.2-.5 1.3M579 87.5c0 .5.5 1.7 1 2.5s1 1 1 .5c0-.6-.5-1.7-1-2.5s-1-1.1-1-.5m85.5 28.7v29.3l2.3.1c1.8.1 1.9.1.2-.3-1.9-.4-2-1.4-2.3-29.4l-.2-28.9zm118.9 3.3c0 18.1.2 25.7.3 16.8.2-8.9.2-23.7 0-33-.1-9.2-.3-2-.3 16.2m63.4-30.8c.7.3 1.6.2 1.9-.1.4-.3-.2-.6-1.3-.5-1.1 0-1.4.3-.6.6M239 90c0 .8.5 2.2 1 3 .9 1.3 1 1.3 1 0 0-.8-.5-2.2-1-3-.9-1.3-1-1.3-1 0m209.1.6c0 1.1.3 1.4.6.6.3-.7.2-1.6-.1-1.9-.3-.4-.6.2-.5 1.3m372.1 6.9c0 4.9.3 10.8.7 13 .8 3.8.9 3.7.9-2 0-3.3-.4-9.2-.8-13l-.7-7zm-453-4.5c0 1.9.2 2.7.5 1.7.2-.9.2-2.5 0-3.5-.3-.9-.5-.1-.5 1.8m144.1 4c0 4.1.2 5.8.4 3.7.2-2 .2-5.4 0-7.5-.2-2-.4-.3-.4 3.8m209-2.5c0 2.7.2 3.8.4 2.2.2-1.5.2-3.7 0-5-.2-1.2-.4 0-.4 2.8m-510.6-2.8c-.4.3-.7 1.1-.7 1.7s.5.5 1.2-.2c.6-.6.9-1.4.7-1.7-.3-.3-.9-.2-1.2.2m145.9 6.8c.4 4.4.8 8.2 1 8.4.8.9.2-12.5-.7-14.4-.5-1.3-.7.8-.3 6m61.4-6.3c0 .9.5 2 1 2.3 1.3.8 1.3-.5 0-2.5-.8-1.3-1-1.3-1 .2M317.2 95c0 1.9.2 2.7.5 1.7.2-.9.2-2.5 0-3.5-.3-.9-.5-.1-.5 1.8m59 0c0 1.9.2 2.7.5 1.7.2-.9.2-2.5 0-3.5-.3-.9-.5-.1-.5 1.8m62.9-1.4c0 1.1.3 1.4.6.6.3-.7.2-1.6-.1-1.9-.3-.4-.6.2-.5 1.3m17 0c0 1.1.3 1.4.6.6.3-.7.2-1.6-.1-1.9-.3-.4-.6.2-.5 1.3m121.9-.9c0 .4.5 1.5 1 2.3.8 1.3 1 1.3 1-.2 0-.9-.4-2-1-2.3-.5-.3-1-.3-1 .2m177.1.9c0 1.1.3 1.4.6.6.3-.7.2-1.6-.1-1.9-.3-.4-.6.2-.5 1.3m-544.5 1.9c-.9 2.6-.7 3.2.5 1.2.6-1 .9-2.1.6-2.3-.2-.3-.7.2-1.1 1.1m27.4-.3c0 .9.5 2 1 2.3 1.3.8 1.3-.5 0-2.5-.8-1.3-1-1.3-1 .2m67.1 4.3c0 3.3.4 6.9.9 8 .6 1.4.9.2.9-4 0-3.3-.4-6.9-.9-8-.6-1.4-.9-.2-.9 4m21.1-1.5c0 1.9.2 2.7.5 1.7.2-.9.2-2.5 0-3.5-.3-.9-.5-.1-.5 1.8m122.9-1.4c0 1.1.3 1.4.6.6.3-.7.2-1.6-.1-1.9-.3-.4-.6.2-.5 1.3m226.1 4.4c0 3.6.3 8.7.8 11.5l.7 5 .1-7c0-3.9-.3-9-.7-11.5-.8-4.4-.9-4.4-.9 2M416 96.9c0 .5.5 1.3 1 1.6.6.3 1 .2 1-.4 0-.5-.4-1.3-1-1.6-.5-.3-1-.2-1 .4M589.4 113c0 9.1.2 12.8.3 8.2.2-4.5.2-11.9 0-16.5-.1-4.5-.3-.8-.3 8.3m9.7-14.4c0 1.1.3 1.4.6.6.3-.7.2-1.6-.1-1.9-.3-.4-.6.2-.5 1.3m156 0c0 1.1.3 1.4.6.6.3-.7.2-1.6-.1-1.9-.3-.4-.6.2-.5 1.3m-543.5.9c-.9 2.6-.7 3.2.5 1.2.6-1 .9-2.1.6-2.3-.2-.3-.7.2-1.1 1.1m245.5.1c0 1.1.3 1.4.6.6.3-.7.2-1.6-.1-1.9-.3-.4-.6.2-.5 1.3m-220.1.1c0 .4.5 1.5 1 2.3.8 1.3 1 1.3 1-.2 0-.9-.4-2-1-2.3-.5-.3-1-.3-1 .2m203.1.1c-.1.7-.5 1.1-1 .8-.4-.3-.6.7-.3 2.1l.5 2.7.9-2.4c.5-1.3.7-2.8.4-3.4-.3-.7-.5-.6-.5.2m399.2 4.7c0 3.3.2 4.5.4 2.7s.2-4.5 0-6-.4 0-.4 3.3m-544.9 25c0 16.5.2 23.4.3 15.3.2-8.1.2-21.6 0-30-.1-8.4-.3-1.8-.3 14.7M415 100.9c0 .5.5 1.3 1 1.6.6.3 1 .2 1-.4 0-.5-.4-1.3-1-1.6-.5-.3-1-.2-1 .4m162.3 2.6c0 2.2.2 3 .4 1.7.2-1.2.2-3 0-4-.3-.9-.5.1-.4 2.3m-127.2-.9c0 1.1.3 1.4.6.6.3-.7.2-1.6-.1-1.9-.3-.4-.6.2-.5 1.3m289.8.1c-1.3 1.6-1.2 1.7.4.4s2.1-2.1 1.3-2.1c-.2 0-1 .8-1.7 1.7m90.4 3.3c0 3 .2 4.3.4 2.7.2-1.5.2-3.9 0-5.5-.2-1.5-.4-.2-.4 2.8m-617.6-2.3c-.4.3-.7 1.3-.7 2.2.1 1.3.3 1.3 1.1-.2 1.1-1.9.8-3.3-.4-2m23.3-.2c0 .5.5 1.7 1 2.5s1 1 1 .5c0-.6-.5-1.7-1-2.5s-1-1.1-1-.5m178 .4c0 .5.5 1.3 1 1.6.6.3 1 .2 1-.4 0-.5-.4-1.3-1-1.6-.5-.3-1-.2-1 .4m184.1.7c0 1.1.3 1.4.6.6.3-.7.2-1.6-.1-1.9-.3-.4-.6.2-.5 1.3m-140 1c0 1.1.3 1.4.6.6.3-.7.2-1.6-.1-1.9-.3-.4-.6.2-.5 1.3m71.5-.7c-.4.5-.2 1.2.3 1.5.5.4 1.2.2 1.5-.3.4-.5.2-1.2-.3-1.5-.5-.4-1.2-.2-1.5.3M375.4 118c0 7.4.1 10.5.3 6.7.2-3.7.2-9.7 0-13.5-.2-3.7-.3-.6-.3 6.8m360.5-11.3c-1.3 1.6-1.2 1.7.4.4.9-.7 1.7-1.5 1.7-1.7 0-.8-.8-.3-2.1 1.3m-310.8.9c0 1.1.3 1.4.6.6.3-.7.2-1.6-.1-1.9-.3-.4-.6.2-.5 1.3m-190.1-.1c0 .5.5 1.7 1 2.5s1 1 1 .5c0-.6-.5-1.7-1-2.5s-1-1.1-1-.5m178 .5c0 .5.5 1 1.1 1 .5 0 .7-.5.4-1-.3-.6-.8-1-1.1-1-.2 0-.4.4-.4 1m27.7.3c-.4 1-.7 2.6-.7 3.5.1 1.5.2 1.5 1.1-.1.6-1 .9-2.5.7-3.5-.3-1.6-.4-1.5-1.1.1m10.4.3c0 1.1.3 1.4.6.6.3-.7.2-1.6-.1-1.9-.3-.4-.6.2-.5 1.3m80.5-.7c-.4.7-.5 1.5-.2 1.8.9.9 1.9-.4 1.4-1.8-.4-1.1-.6-1.1-1.2 0m-317.9.8c-.4.3-.7 1.1-.7 1.7s.5.5 1.2-.2c.6-.6.9-1.4.7-1.7-.3-.3-.9-.2-1.2.2M325.4 127c0 10.2.2 14.3.3 9.2.2-5 .2-13.4 0-18.5-.1-5-.3-.9-.3 9.3m86.6-16.1c0 .5.5 1.3 1 1.6.6.3 1 .2 1-.4 0-.5-.4-1.3-1-1.6-.5-.3-1-.2-1 .4m47.1.7c0 1.1.3 1.4.6.6.3-.7.2-1.6-.1-1.9-.3-.4-.6.2-.5 1.3m288.8.1c-1.3 1.6-1.2 1.7.4.4.9-.7 1.7-1.5 1.7-1.7 0-.8-.8-.3-2.1 1.3m-381.5 12.8c0 7.7.2 10.7.3 6.7.2-4 .2-10.3 0-14s-.3-.4-.3 7.3m-151.8-11c-.9 2.6-.7 3.2.5 1.2.6-1 .9-2.1.6-2.3-.2-.3-.7.2-1.1 1.1m19.6-.1c.7.8 1.5 1.2 1.7 1.1.5-.6-1-2.5-2-2.5-.5 0-.4.6.3 1.4m-8.1 1.2c0 1.1.3 1.4.6.6.3-.7.2-1.6-.1-1.9-.3-.4-.6.2-.5 1.3m127.9 1.1c0 1.5.5 3.5 1 4.3.7 1.1 1 .6 1-2.2 0-2-.4-4-1-4.3-.6-.4-1 .6-1 2.2m98.1-1.1c0 1.1.3 1.4.6.6.3-.7.2-1.6-.1-1.9-.3-.4-.6.2-.5 1.3m243.2 6.4c0 4.7.2 6.6.4 4.2.2-2.3.2-6.1 0-8.5-.2-2.3-.4-.4-.4 4.3M411 115c0 .5.5 1 1.1 1 .5 0 .7-.5.4-1-.3-.6-.8-1-1.1-1-.2 0-.4.4-.4 1m332.7 1c-.8 1.1-1.7 1.7-2.2 1.2-.5-.4-.5-.1-.1.5 1 1.7 1.1 1.7 3-1.2 1.9-3 1.3-3.4-.7-.5m-302 .3c-1.1 2.9-.9 4.3.4 3 .6-.6.9-1.9.7-2.9-.3-1.8-.4-1.8-1.1-.1m59.5 11.3c-.1 7.2-.5 14.7-.8 16.5-.5 2.6-.4 3.1.5 2.3.8-.7 1.1-5.7.8-16.5l-.3-15.4zM304 118.7c0 1.5.5 3.5 1 4.3.7 1.1 1 .6 1-2.2 0-2-.4-4-1-4.3-.6-.4-1 .6-1 2.2m156.1-1.1c0 1.1.3 1.4.6.6.3-.7.2-1.6-.1-1.9-.3-.4-.6.2-.5 1.3m-244.5.9c-.9 2.6-.7 3.2.5 1.2.6-1 .9-2.1.6-2.3-.2-.3-.7.2-1.1 1.1m194.4-.6c0 .5.5 1.3 1 1.6.6.3 1 .2 1-.4 0-.5-.4-1.3-1-1.6-.5-.3-1-.2-1 .4m101.3 4.6c0 3.3.2 4.5.4 2.7s.2-4.5 0-6-.4 0-.4 3.3m97-4.8c.9.2 2.5.2 3.5 0 .9-.3.1-.5-1.8-.5s-2.7.2-1.7.5m-381.2 1.9c0 1.1.3 1.4.6.6.3-.7.2-1.6-.1-1.9-.3-.4-.6.2-.5 1.3m351.6 1.3c-.4 1.8-.7 4.8-.6 6.5l.1 3.1.9-3.4c.6-1.8.9-4.7.7-6.5l-.3-3.1zm-125.6-.3c0 1.1.3 1.4.6.6.3-.7.2-1.6-.1-1.9-.3-.4-.6.2-.5 1.3m233.3 8.9c0 6 .1 8.4.3 5.2s.2-8.1 0-11-.3-.3-.3 5.8M409 121.9c0 .5.5 1.3 1 1.6.6.3 1 .2 1-.4 0-.5-.4-1.3-1-1.6-.5-.3-1-.2-1 .4m-192.4 1.6c-.9 2.6-.7 3.2.5 1.2.6-1 .9-2.1.6-2.3-.2-.3-.7.2-1.1 1.1M433 123l-10.5.6 10.2.2c5.9.1 10.4-.2 10.8-.8.3-.6.5-.9.3-.8s-5 .5-10.8.8m28.1.6c0 1.1.3 1.4.6.6.3-.7.2-1.6-.1-1.9-.3-.4-.6.2-.5 1.3m64.7-.9c1.2.2 3 .2 4 0 .9-.3-.1-.5-2.3-.4-2.2 0-3 .2-1.7.4m94.8.2c-.4.5-.2 1.2.3 1.5.5.4 1.2.2 1.5-.3.4-.5.2-1.2-.3-1.5-.5-.4-1.2-.2-1.5.3m217.8 12.6c0 7.7.2 10.7.3 6.7.2-4 .2-10.3 0-14s-.3-.4-.3 7.3m-610.3-10.9c0 1.1.3 1.4.6.6.3-.7.2-1.6-.1-1.9-.3-.4-.6.2-.5 1.3m15 0c0 1.1.3 1.4.6.6.3-.7.2-1.6-.1-1.9-.3-.4-.6.2-.5 1.3m486.2 6.9c0 4.4.2 6.1.4 3.7.2-2.3.2-5.9 0-8-.2-2-.4-.1-.4 4.3m3.3-6.3c.3.5 1 .6 1.5.3 1.3-.9 1.1-1.2-.6-1.2-.8 0-1.2.4-.9.9m86.6 11.3c0 10 .2 12.3 1 9.9.7-2 .7-6.5 0-13l-.9-9.9zM408 125.9c0 .5.5 1.3 1 1.6.6.3 1 .2 1-.4 0-.5-.4-1.3-1-1.6-.5-.3-1-.2-1 .4m312.4 10.6c0 6.6.1 9.2.3 5.7.2-3.4.2-8.8 0-12-.2-3.1-.3-.3-.3 6.3m-266.3-8.9c0 1.1.3 1.4.6.6.3-.7.2-1.6-.1-1.9-.3-.4-.6.2-.5 1.3m-236.5 1c-.4.9-.4 1.9-.1 2.2.2.3.7-.3 1.1-1.2s.4-1.9.1-2.2c-.2-.3-.7.3-1.1 1.2m384.2-.9c.6.2 1.8.2 2.5 0 .6-.3.1-.5-1.3-.5s-1.9.2-1.2.5m-359.7 1.9c0 1.1.3 1.4.6.6.3-.7.2-1.6-.1-1.9-.3-.4-.6.2-.5 1.3m220.1.4c0 1.4.2 1.9.5 1.2.2-.6.2-1.8 0-2.5-.3-.6-.5-.1-.5 1.3m367.1 2c0 2.5.2 3.5.4 2.2.2-1.2.2-3.2 0-4.5-.2-1.2-.4-.2-.4 2.3M407 129.9c0 .5.5 1.3 1 1.6.6.3 1 .2 1-.4 0-.5-.4-1.3-1-1.6-.5-.3-1-.2-1 .4m196.1.7c0 1.1.3 1.4.6.6.3-.7.2-1.6-.1-1.9-.3-.4-.6.2-.5 1.3m132.6.1c-.4.3-.7 1.1-.7 1.7s.5.5 1.2-.2c.6-.6.9-1.4.7-1.7-.3-.3-.9-.2-1.2.2m-505.1 1.8c-.9 2.6-.7 3.2.5 1.2.6-1 .9-2.1.6-2.3-.2-.3-.7.2-1.1 1.1m-11.9.2c-.4.3-.7 1.1-.7 1.7s.5.5 1.2-.2c.6-.6.9-1.4.7-1.7-.3-.3-.9-.2-1.2.2m156.6 5.8c0 3.8.2 5.3.4 3.2.2-2 .2-5.2 0-7-.2-1.7-.4-.1-.4 3.8m79.9-4.5c0 1.4.2 1.9.5 1.2.2-.6.2-1.8 0-2.5-.3-.6-.5-.1-.5 1.3m-214.1.6c0 1.1.3 1.4.6.6.3-.7.2-1.6-.1-1.9-.3-.4-.6.2-.5 1.3m164.9-.9c0 .4.5 1.5 1 2.3.8 1.3 1 1.3 1-.2 0-.9-.4-2-1-2.3-.5-.3-1-.3-1 .2m184.1.9c0 1.1.3 1.4.6.6.3-.7.2-1.6-.1-1.9-.3-.4-.6.2-.5 1.3m33.1 1.4c0 1.9.2 2.7.5 1.7.2-.9.2-2.5 0-3.5-.3-.9-.5-.1-.5 1.8m113.4-1.5c-.9 2.6-.7 3.2.5 1.2.6-1 .9-2.1.6-2.3-.2-.3-.7.2-1.1 1.1m-485.5 1.1c0 1.1.3 1.4.6.6.3-.7.2-1.6-.1-1.9-.3-.4-.6.2-.5 1.3m168 0c0 1.1.3 1.4.6.6.3-.7.2-1.6-.1-1.9-.3-.4-.6.2-.5 1.3m101.3 3.9c.1 4.2.4 5 2.1 5.2 1.5.1 1.5 0 .3-.3-1.2-.4-1.8-1.9-2.1-5.2l-.4-4.7zm59.3-4.2c-.4 1-.7 2.6-.7 3.5.1 1.5.2 1.5 1.1-.1.6-1 .9-2.5.7-3.5-.3-1.6-.4-1.5-1.1.1M463.2 137c0 1.4.2 1.9.5 1.2.2-.6.2-1.8 0-2.5-.3-.6-.5-.1-.5 1.3m167.9-.4c0 1.1.3 1.4.6.6.3-.7.2-1.6-.1-1.9-.3-.4-.6.2-.5 1.3m43 .6c-.1 1.5.4 3 .9 3.3 1.2.7 1.2-1.2 0-4-.8-1.8-.9-1.7-.9.7m-454.4-.5c-.4.3-.7 1.1-.7 1.7s.5.5 1.2-.2c.6-.6.9-1.4.7-1.7-.3-.3-.9-.2-1.2.2m85 .6c-.4 1-.7 2.6-.7 3.5.1 1.5.2 1.5 1.1-.1.6-1 .9-2.5.7-3.5-.3-1.6-.4-1.5-1.1.1m304.4-.6c.9.2 2 1.8 2.4 3.6q.75 3.15 1.2 1.5c.6-2.4-1.5-5.8-3.5-5.7-1.5.1-1.5.2-.1.6m-164.5 2.9c-.4 1.4-.5 2.8-.3 3.1.3.2.8-.8 1.1-2.3.4-1.4.5-2.8.3-3.1-.3-.2-.8.8-1.1 2.3m153.5-1c0 1.1.3 1.4.6.6.3-.7.2-1.6-.1-1.9-.3-.4-.6.2-.5 1.3m47-.9c0 .6-.4 2-.7 3-.5 1.4-.4 1.5.5.7.7-.7 1.1-2 .8-3-.3-1.1-.5-1.4-.6-.7m-405 1.9c0 1.1.3 1.4.6.6.3-.7.2-1.6-.1-1.9-.3-.4-.6.2-.5 1.3m114.6-.3c-1.1 2.9-.9 4.3.4 3 .6-.6.9-1.9.7-2.9-.3-1.8-.4-1.8-1.1-.1m50.3-.3c0 .8.5 2.2 1 3 .9 1.3 1 1.3 1 0 0-.8-.5-2.2-1-3-.9-1.3-1-1.3-1 0m332.7-.3c-.4.3-.7 1.3-.7 2.2.1 1.3.3 1.3 1.1-.2 1.1-1.9.8-3.3-.4-2m-487.6 1.9c0 1.1.3 1.4.6.6.3-.7.2-1.6-.1-1.9-.3-.4-.6.2-.5 1.3m-29.4.1c-.4.3-.7 1.1-.7 1.7s.5.5 1.2-.2c.6-.6.9-1.4.7-1.7-.3-.3-.9-.2-1.2.2m197.4.9c0 1.1.3 1.4.6.6.3-.7.2-1.6-.1-1.9-.3-.4-.6.2-.5 1.3m10 0c0 1.1.3 1.4.6.6.3-.7.2-1.6-.1-1.9-.3-.4-.6.2-.5 1.3M273.3 145c0 2.5.2 3.5.4 2.2.2-1.2.2-3.2 0-4.5-.2-1.2-.4-.2-.4 2.3m307.4-3.3c-.4.3-.7 1.1-.7 1.7s.5.5 1.2-.2c.6-.6.9-1.4.7-1.7-.3-.3-.9-.2-1.2.2m18.3 1.2c0 .6.4 1.3 1 1.6s.7-.1.4-.9c-.7-1.8-1.4-2.1-1.4-.7m-293.4 1.8c-.6 1.4-.5 1.5.5.6.7-.7 1-1.5.7-1.8s-.9.2-1.2 1.2m339.9-.6c-.4.6-.5 1.2-.2 1.5.2.3.7-.2 1-1.1.7-1.7.1-2-.8-.4m26.8.4c0 .8.4 1.2.9.9s.6-1 .3-1.5c-.9-1.3-1.2-1.1-1.2.6m66.3.1c-.4.9-.4 1.9-.1 2.2.2.3.7-.3 1.1-1.2s.4-1.9.1-2.2c-.2-.3-.7.3-1.1 1.2m-517 .9c-.9 2.6-.7 3.2.5 1.2.6-1 .9-2.1.6-2.3-.2-.3-.7.2-1.1 1.1m95.5.1c0 1.1.3 1.4.6.6.3-.7.2-1.6-.1-1.9-.3-.4-.6.2-.5 1.3m38.6-.9c-.4.3-.7 1.1-.7 1.7s.5.5 1.2-.2c.6-.6.9-1.4.7-1.7-.3-.3-.9-.2-1.2.2m89.9 1.9c-.4 1.4-.5 2.9-.2 3.1.3.3.8-.7 1.2-2.1.3-1.5.4-2.9.1-3.2-.2-.3-.8.7-1.1 2.2m384.7.9c0 2.2.2 3 .4 1.7.2-1.2.2-3 0-4-.3-.9-.5.1-.4 2.3m-496-1.8c.9.2 2.3.2 3 0 .6-.3-.1-.5-1.8-.5-1.6 0-2.2.2-1.2.5m6.3.2c-.4.5-.2 1.2.3 1.5.5.4 1.2.2 1.5-.3.4-.5.2-1.2-.3-1.5-.5-.4-1.2-.2-1.5.3m43.7-.2c.9.2 2.3.2 3 0 .6-.3-.1-.5-1.8-.5-1.6 0-2.2.2-1.2.5m6.4 0c-.4.8.9 5.3 1.6 5.3.1 0 .3-1.1.2-2.4 0-2.6-1-4.2-1.8-2.9m36.4.9c0 1.1.3 1.4.6.6.3-.7.2-1.6-.1-1.9-.3-.4-.6.2-.5 1.3m30.1.4c0 1.4.2 1.9.5 1.2.2-.6.2-1.8 0-2.5-.3-.6-.5-.1-.5 1.3m71.6-1.3c.6.2 1.8.2 2.5 0 .6-.3.1-.5-1.3-.5s-1.9.2-1.2.5m4.7.3c-.4.6-.1.9.7.8.7-.2 1.2.3 1 1-.1.8.2 1.1.8.7.8-.5.7-1.1-.1-2.1-1.4-1.7-1.6-1.7-2.4-.4m49.1.9c-.3.4.3 1.6 1.3 2.5 1.5 1.4 2.1 1.5 2.7.4.4-.7.4-1-.1-.6-1 1-3.7-1.1-2.9-2.3.3-.5.3-.9 0-.9s-.7.4-1 .9m64 0c-.4.5-.2 1.2.3 1.5.5.4 1.2.2 1.5-.3.4-.5.2-1.2-.3-1.5-.5-.4-1.2-.2-1.5.3m-289.9.8c-1.1 1.1-.8 2 .7 2 .8 0 1.2-.6.9-1.4-.6-1.5-.7-1.5-1.6-.6m60.4 1.3c0 1.5-.4 3-.8 3.6-.5.5-.2.4.5-.2.8-.6 1.2-2.2.9-3.5-.4-2.4-.4-2.4-.6.1m-194.6 0c-.3.5-.1 1 .4 1 .6 0 1.1-.5 1.1-1 0-.6-.2-1-.4-1-.3 0-.8.4-1.1 1m242.6.6c0 1.1.3 1.4.6.6.3-.7.2-1.6-.1-1.9-.3-.4-.6.2-.5 1.3m36.6-.9c-.4.3-.7 1.1-.7 1.7s.5.5 1.2-.2c.6-.6.9-1.4.7-1.7-.3-.3-.9-.2-1.2.2m238 0c-.4.3-.7 1.1-.7 1.7s.5.5 1.2-.2c.6-.6.9-1.4.7-1.7-.3-.3-.9-.2-1.2.2m-334.1 1.8c-.9 2.6-.7 3.2.5 1.2.6-1 .9-2.1.6-2.3-.2-.3-.7.2-1.1 1.1m216.5.1c0 1.1.3 1.4.6.6.3-.7.2-1.6-.1-1.9-.3-.4-.6.2-.5 1.3m87.5.1c-.6 1.4-.5 1.5.5.6.7-.7 1-1.5.7-1.8s-.9.2-1.2 1.2m-434.9 0c-.4.3-.7 1.1-.7 1.7s.5.5 1.2-.2c.6-.6.9-1.4.7-1.7-.3-.3-.9-.2-1.2.2m171.7.4c-.3.6 0 1.7.8 2.5 1.3 1.3 1.5 1.3 1.5 0 0-.8-.5-1.2-1-.9-.6.4-.8 0-.4-1 .7-1.9.2-2.3-.9-.6m374.3-.4c-.4.3-.7 1.1-.7 1.7s.5.5 1.2-.2c.6-.6.9-1.4.7-1.7-.3-.3-.9-.2-1.2.2m-462.1 1.1c-.3.5.1 1.5.8 2.1 1.1 1 1.4.9 1.2-.3-.3-2.1-1.3-2.9-2-1.8m381.9.1c-.3.5-.2 1.2.3 1.5s.9-.1.9-.9c0-1.7-.3-1.9-1.2-.6m-515.9 1c-.4.5-.2 1.2.3 1.5.5.4 1.2.2 1.5-.3.4-.5.2-1.2-.3-1.5-.5-.4-1.2-.2-1.5.3m201.6 1.1c0 1.4.2 1.9.5 1.2.2-.6.2-1.8 0-2.5-.3-.6-.5-.1-.5 1.3m75.8-1.5c0 .2.6.8 1.3 1.4 1 .8 1.4.7 1.4-.2 0-.8-.6-1.4-1.4-1.4-.7 0-1.3.1-1.3.2m257.1 2.1c0 1.1.3 1.4.6.6.3-.7.2-1.6-.1-1.9-.3-.4-.6.2-.5 1.3m-240.3.1c2.3.2 5.9.2 8 0 2-.2.1-.4-4.3-.4s-6.1.2-3.7.4m86 0c1.8.2 4.5.2 6 0s0-.4-3.3-.4-4.5.2-2.7.4m26.3.9c0 1.1.3 1.4.6.6.3-.7.2-1.6-.1-1.9-.3-.4-.6.2-.5 1.3m-281 1c0 1.1.3 1.4.6.6.3-.7.2-1.6-.1-1.9-.3-.4-.6.2-.5 1.3m116.1.4c0 1.4.2 1.9.5 1.2.2-.6.2-1.8 0-2.5-.3-.6-.5-.1-.5 1.3m250 0c0 1.4.2 1.9.5 1.2.2-.6.2-1.8 0-2.5-.3-.6-.5-.1-.5 1.3m-435.6.3c.3 1 .9 1.5 1.2 1.2s0-1.1-.7-1.8c-1-.9-1.1-.8-.5.6m263.5.3c0 1.1.3 1.4.6.6.3-.7.2-1.6-.1-1.9-.3-.4-.6.2-.5 1.3m282.5-.3c.3 1 .9 1.5 1.2 1.2s0-1.1-.7-1.8c-1-.9-1.1-.8-.5.6m-137.7 1.4c-1.3 1.6-1.2 1.7.4.4.9-.7 1.7-1.5 1.7-1.7 0-.8-.8-.3-2.1 1.3m58.1.2c0 .6.4 1.3 1 1.6s.7-.1.4-.9c-.7-1.8-1.4-2.1-1.4-.7m90.1 2.4c-1.3 2.1-1.2 2.1.5.5 1-1 1.6-2 1.3-2.2-.3-.3-1.1.5-1.8 1.7m-606.1-.9c0 .2.8 1 1.8 1.7 1.5 1.3 1.6 1.2.3-.4s-2.1-2.1-2.1-1.3m12.5.7c-.4.6-.5 1.2-.2 1.5.2.3.7-.2 1-1.1.7-1.7.1-2-.8-.4m288.8 2.6c.9.2 2.3.2 3 0 .6-.3-.1-.5-1.8-.5-1.6 0-2.2.2-1.2.5m78.5 0c.6.2 1.8.2 2.5 0 .6-.3.1-.5-1.3-.5s-1.9.2-1.2.5m7 0c.7.3 1.6.2 1.9-.1.4-.3-.2-.6-1.3-.5-1.1 0-1.4.3-.6.6m58 0c.7.3 1.6.2 1.9-.1.4-.3-.2-.6-1.3-.5-1.1 0-1.4.3-.6.6"/><g stroke-width="0"><path d="M502.5 68.1c-1.1 1.3-1.3 1.9-.5 1.3s7.2-1.4 14.2-1.8c12.5-.6 17.3.1 19 2.7.5.8.8.9.8.1 0-3.1-3.4-3.9-17.4-4.2-13.7-.4-14.2-.3-16.1 1.9m91.6.1c-6.2 3.1-13.3 13.5-14.6 21.8-.4 2.4.1 1.6 1.5-2.3 5.2-14.5 12.6-20.7 24.5-20.7 6.8 0 11.8 1.9 14.1 5.5 1.8 2.7 1.7 2.8-.5 4.6-2.9 2.4-4.9 2.4-8.6-.1-6-4-12.7-1.6-16.4 5.8-3.7 7.6-4.3 12.2-3.9 32.8.2 16.6.6 20.5 2.1 23.4 2 4.2 5.6 6.5 11.4 7.5 5.1.8 8.4-.7 8.2-3.8l-.2-2.2-.4 2.2c-.4 2.1-1 2.3-5.8 2.3-3 0-5.7-.5-6.1-1.2-.4-.6-.9-4.5-1.2-8.6-.4-6.8-.3-7.5 1.2-6.9 1 .4 2.3.7 3 .7.6 0 1.6 1.5 2.1 3.2.7 2.4 1.7 3.4 3.5 3.6 1.4.2 3.1 1.1 3.8 2 1 1.3 1.2.9 1.2-3 0-6.3-1.9-8.2-7.5-7.4-3.3.5-4.7.3-6.6-1.2-2-1.7-2.1-2.2-1-3.5 3.7-4.5 17.4-4.9 21.6-.6 3.2 3.2 4.5 10.2 3.8 21.2-.9 12.9-1 13.1-15.2 11.7-14-1.3-21.5-4-24.8-8.9-1.3-1.9-2.3-2.8-2.3-2.1s2.3 3.5 5 6.2c2.8 2.7 5 5.3 5 5.7 0 1.3 7.3 4.8 12.5 6 2.8.6 7.7 1.3 11 1.5s6.8.7 7.8 1.1c.9.4 2.8.4 4.1.1 3.8-.9 5.1-5.7 5.1-18.6 0-12.6-1.4-17.1-5.9-19.2-1.3-.5-3-2.1-3.7-3.4-2.3-4.4-5.5-5.6-13.3-5.2-3.9.3-7.8.8-8.7 1.2-2.4 1.1-2.7-.7-1.8-11.7 1.4-15.7 6-23.7 13.7-23.7 1.9 0 5 .9 6.9 2.1 2.9 1.8 3.8 1.9 6.3.9 1.6-.7 3.2-2 3.5-3.1.8-2.4-2-7.6-4.5-8.4-1.1-.4-2.7-2-3.6-3.6-2-4-6.9-5.9-15.1-5.9-5 0-8 .6-11.2 2.2M310.3 68c-2.7 1.1-3.5 4-3 10.6.3 4.8.3 4.8.5-1.2.2-6.9 1.3-8.4 5.9-8.4 2.6 0 3.6.5 4.3 2.2.6 1.7.9 1.8.9.6.1-1.7-3.5-4.9-5.4-4.7-.5 0-2 .4-3.2.9m50 0c-2.4 1-3.7 4.5-3 8.1.3 1.7.5 1.4.6-1.2 0-1.9.6-4 1.3-4.7 1.7-1.7 6.3-1.5 7.8.3s1.5.8.5 43.2c-.7 30.1-.7 32.3.9 32.9 1 .4 5.5.2 10.1-.5 5.8-.8 9.1-.8 11.1-.1 2.8 1 2.8.9.9-.6-1.6-1.2-3.4-1.4-8.9-.9l-6.9.7.8-26.4c.5-14.5.8-29.5.9-33.4.1-7.6-1.2-10.4-4.6-10.4-1.2 0-2.3-1.1-3-3-.9-2.8-3.5-5.1-5.5-4.9-.4 0-1.8.4-3 .9m70.7.7c-1.9 1-4.6 3.6-6.1 5.8-2.9 4.4-6.9 14.6-6.9 17.3.1.9 1.3-1.9 2.7-6.2 3.5-10.4 9-16.6 14.7-16.6 8.9 0 10.3 3.1 15.5 34.5 5.8 35.9 7.1 44.2 7.1 46.5 0 2.5-4 4.5-7.3 3.6-1.5-.3-2.9-1.7-3.5-3.3s-1.1-2.2-1.1-1.5c-.2 2.3 2 5.3 4.5 6.2 1.3.5 2.8 2 3.3 3.3 1.4 3.6 3.7 5 6.8 4.2 5.9-1.4 6.3-3.2 3.8-18.1-.8-4.9-3.1-19-5-31.4-4.9-30.6-5.1-31.2-12.8-38.7-7.3-7.2-10.5-8.3-15.7-5.6m286.4-.3c-7.1 1.6-14.2 5-15.1 7.2-1 2.6 1.4 6.4 4.1 6.4s3.2 2 3.9 14c.2 3 .4.9.5-4.8L711 81h-2.8c-6.4 0-7-4.9-.9-7.8 9.5-4.4 20.2-5.5 26-2.6 4 2 10.4 8.1 12.3 11.6 3.4 6.5-.3 17.1-8.4 23.9l-3.8 3.2 5.2 5.1c5.8 5.7 8 11.2 11.4 27.8 1.8 8.5 1.8 9.4.3 11-2.3 2.6-5.8 2.2-8.2-.8-1.2-1.5-2.1-2.3-2.1-1.8.1 1.4 2.2 3.8 5.2 5.6 1.4 1 2.9 2.6 3.2 3.6 1.4 4.4 9.7 4.7 11 .4.8-2.5-1.7-15.6-5-25.9-2-6.4-3.6-9.3-7-13l-4.4-4.7 3.1-3c4.1-4 7.5-9.4 8.7-13.9 1.8-6.4-.2-11.1-8.6-19.8-10.9-11.5-17.3-14-28.8-11.5m-441.2 1.2c-1.2.8-2.2 2-2.2 2.5 0 .6.7.3 1.6-.5 2.4-2.4 7.1-2 8.6.6.9 1.7 1.4 12.1 1.6 40.6.4 35.4.3 38.5-1.4 40.3-2.1 2.3-5.1 2.4-7.6.2-1-.9-1.8-1.2-1.8-.7 0 1.6 2.3 3.4 4.3 3.4 1.1 0 2.2 1.1 2.9 3.1 1.4 4.1 4.9 5.4 8.9 3.3l3-1.5-.3-40.2c-.2-22.1-.7-41-1.2-41.9-.4-.9-2.1-2.1-3.6-2.7-1.9-.6-3.2-1.9-3.6-3.6-1.1-4.3-5.3-5.7-9.2-2.9m497.5.2c-2.2 2.4-2.2 3.9-.1 1.8 2.1-2.2 7-2 8.3.1.6 1 1.1 1.3 1.1.6 0-1.9-3-4.3-5.4-4.3-1.3 0-3 .8-3.9 1.8m-527.2 2.7c-2.6 3.4-6.6 14-6.4 17.3 0 1 1-1.7 2.3-5.8 2.5-8.6 4.1-11.4 7.3-13.1 1.7-.9 2.9-1 4.8-.1 3 1.4 3.1 3.5.6 9.9s-9.3 33.5-12.6 50.3c-3.9 19.3-6.1 24-11.7 24-1.8 0-3.8-1-5.3-2.6-1.4-1.5-2.5-2.3-2.5-1.7 0 1.2 4.3 5.3 5.7 5.3.5 0 1.5 1.1 2.1 2.4 1.7 3.7 5.6 5.9 9.1 5.1 4.4-1 7.4-8.1 11.1-26.5 3.4-17.3 9-39.3 12.2-48.5 2.7-7.7 2-11.3-2.2-12.2-1.9-.3-3-1.2-3-2.3 0-2.4-3.2-5-6.3-5-1.8 0-3.4 1.1-5.2 3.5m433.6-2.2c-1.4.6-2.7 1.9-2.9 2.7-.4 1.1-.1 1 1.2-.3 2-2 6.6-2.3 8.4-.5.9.9 1.2.9 1.2 0 0-.7-1.2-1.7-2.6-2.2-3-1.2-2.4-1.2-5.3.3m128.2-.3c-2.4 1-3.9 5-2.9 7.6.3.9 1.8 2 3.4 2.6 1.5.6 3.4 2.5 4.2 4.2 1.1 2.2 2.4 3.2 4.5 3.6 2.9.5 3 .7 3.6 7 .5 5 .6 4 .5-4.5l-.1-11h-6.1c-6.7 0-9.7-1.6-9.2-4.9.6-3.9 4.2-4.6 21.8-4.4 9.1.1 17.3.5 18.3 1 2.2 1.1 2.2 5.5-.1 6.7-1 .5-4.5 1.3-7.9 1.6l-6.1.7-.7 4.6c-.4 2.4-.8 18.5-1.1 35.6-.2 17.1-.4 31.4-.4 31.9 0 .4-1.1 1.3-2.5 1.9-2.1.9-2.8.8-4.5-.7-1.1-1-2-1.4-2-.9 0 1.6 2.3 3.4 4.3 3.4 1.1 0 2.2 1.1 2.9 3 1.4 4.2 4.3 5.6 7.4 3.5 1.3-.8 2.4-1.9 2.5-2.3 0-.4.2-12.6.4-27.2.1-14.6.6-30.4 1-35.2l.8-8.6 5.6-.7c7.7-.9 10.3-2.7 9.9-6.8-.2-2.5-1-3.5-3.5-4.7-1.8-.8-3.3-2.2-3.3-3.1s-.8-2.3-1.8-3.2c-1.6-1.5-4.4-1.7-19.3-1.6-9.6 0-18.4.4-19.6.9"/><path d="m207.4 72.2-1.9 2.2 2.5-1.7c1.3-.9 3.2-1.7 4.1-1.7 2.3 0 5.6 4.3 6.4 8.3.4 1.8 2.4 10.4 4.5 19.2 2.2 8.8 4.7 20.2 5.6 25.3s1.8 9.1 2.1 8.9c.7-.8 7.3-30.1 7-31.1-.2-.6-.9 1.8-1.7 5.2-2.1 9.9-2.7 8.8-7.5-12.4-2.6-11.5-4.6-16-7.5-16.9-1.1-.4-2.7-1.9-3.5-3.4-2.3-4.6-7-5.5-10.1-1.9M500.5 107c0 20.1.1 28.3.2 18.3.2-10.1.2-26.5 0-36.5-.1-10.1-.2-1.9-.2 18.2m33.7-33c-1.1 1.8-2.4 2-12.4 2h-11.1l.6 10.7c.4 5.8.7 12.3.7 14.5v3.8h9c7.4 0 9.1.3 9.9 1.7.6 1 1.1 1.3 1.1.6 0-2-4.3-4.3-8.2-4.3H520v-4.4c0-2.4-.3-6.4-.6-8.9l-.7-4.6 10.8-.3c10.5-.3 10.8-.4 12.9-3.1q3.75-4.95-3-7.2c-1.6-.5-3.1-1.3-3.4-1.7s-1.1.2-1.8 1.2m112.8-.7-2.5 1.3v65.9l.2-31.9c.2-21.5.7-32.4 1.4-33.3 1.8-2.1 6.6-1.6 8.3.9.9 1.2 1.6 1.7 1.6 1 0-1.6-3.7-5.2-5.2-5.2-.7 0-2.4.6-3.8 1.3m-373.9 2.3c0 1.1.3 1.4.6.6.3-.7.2-1.6-.1-1.9-.3-.4-.6.2-.5 1.3m45 13.8c-1.2 15.9-1.5 51.5-.5 55.3.7 2.7 3.3 2.9 12.8 1.2 10.9-1.9 15.6 2.4 7.2 6.5-2.5 1.2-6.9 2-12.9 2.4-13.1.7-16.5-1.7-19-13.3-.4-1.6-.5-1.5-.6.5-.1 4 3.5 10.9 6.8 12.8 1.7.9 3.5 2.7 4.1 4 1.7 3.9 7.4 5.5 16.3 4.8 4.2-.4 9.9-1.4 12.5-2.4 4.2-1.6 4.7-2.1 4.7-4.7 0-2.4-.7-3.3-3.2-4.5-1.8-.8-3.3-2.2-3.3-3.1s-.9-2.4-1.9-3.4c-1.7-1.4-3.1-1.6-9-1l-7.1.7v-13.8c0-7.7.5-22.3 1.2-32.5 1.1-16.9 1-18.9-.4-21.2-.9-1.3-2.8-2.7-4.1-2.9l-2.4-.5zM688 84.5c-.9 48.1-1.5 57.9-3.5 61.4-2.8 4.7-6.1 6.9-12.5 8.3-8.5 1.7-15.9.4-20.8-3.8-2.4-2-4.3-4.7-4.7-6.5-.4-1.7-.9-2.8-1.1-2.6-1.5 1.5 1.8 6.8 8 13.2 6.1 6.1 7.9 7.4 12.3 8.4 5.3 1.3 10.3.9 17.6-1.2 4.6-1.3 9.3-6.3 10.6-11.4.5-2.1 1.3-18.7 1.6-36.9.7-30.2.6-33.2-1-34.7-.9-.9-2.5-1.7-3.5-1.7s-2.1-.8-2.3-1.8c-.3-.9-.6 3.2-.7 9.3m83.2-7.5c0 1.9.2 2.7.5 1.7.2-.9.2-2.5 0-3.5-.3-.9-.5-.1-.5 1.8m12.6 35.7c.4 35.7.3 38.5-1.3 40.3-3.1 3.5-8 2-9.8-3-.5-1.3-.6-1.3-.6 0-.1 2.4 2.8 6 4.8 6 1.1 0 2.4 1.2 3.1 3.1.7 1.7 2.4 3.5 3.7 4 3.1 1.1 7.2-.8 7.9-3.7.3-1.3.4-19.3.2-40.1-.4-40.5-.4-41-5.6-43.5l-2.8-1.4z"/><path d="M676.4 88.5c0 7.7.2 10.7.3 6.7.2-4 .2-10.3 0-14s-.3-.4-.3 7.3M721 78c-1.5.9-.2 26 1.3 26 1.7 0 10.7-6.1 12.2-8.3 2.5-3.6 1.6-3.9-1.4-.5-1.6 1.8-3.2 3-3.5 2.7-.4-.3-.7-3-.9-6l-.2-5.4 3.8.1c4.4.1 4.8-1.3 1.4-5.2-2.4-2.7-10.4-4.9-12.7-3.4m-514.9 1.6c0 1.1.3 1.4.6.6.3-.7.2-1.6-.1-1.9-.3-.4-.6.2-.5 1.3m227.6 1.9c-2 4-6.1 17.8-8.7 29.5-1.2 5.2-2.3 10.1-2.5 10.7-.3 1 2.1 1.3 10 1.3 10.3 0 10.5-.1 10.4-2.3-.1-1.6-.2-1.8-.6-.5-.3 1.4-1.5 1.8-4.9 1.8-4.9 0-5.2-.5-3.3-7.5 3-11.5 4.1-14.5 4.9-14 .6.4 1-.3 1-1.4 0-2.5-2.6-14.8-3.8-18.1l-.9-2.5zm222.5 29.4c.3 29.7.4 32 2.2 34 2.9 3.2 10.8 3 14.1-.4 1.4-1.3 2.5-3 2.4-3.7 0-.7-.5-.3-1.1.9-1.2 2.5-6 4.8-8.3 3.9-1.3-.5-1.5-4.6-1.5-30 0-16.2-.4-30.6-.9-31.9-.6-1.4-2.3-2.9-4.1-3.5l-3.1-1.1zM207.1 83.6c0 1.1.3 1.4.6.6.3-.7.2-1.6-.1-1.9-.3-.4-.6.2-.5 1.3m67.3 33.4c0 19 .2 26.7.3 17.2.2-9.4.2-25 0-34.5-.1-9.4-.3-1.7-.3 17.3m81.9-28c0 3 .2 4.3.4 2.7.2-1.5.2-3.9 0-5.5-.2-1.5-.4-.2-.4 2.8m416.1 26c0 16.2.2 22.9.3 14.7.2-8.1.2-21.3 0-29.5-.1-8.1-.3-1.4-.3 14.8M306.3 92c0 3 .2 4.3.4 2.7.2-1.5.2-3.9 0-5.5-.2-1.5-.4-.2-.4 2.8m-97.2-1.4c0 1.1.3 1.4.6.6.3-.7.2-1.6-.1-1.9-.3-.4-.6.2-.5 1.3m30.1 3.4c0 1.4.2 1.9.5 1.2.2-.6.2-1.8 0-2.5-.3-.6-.5-.1-.5 1.3m-29.1-.5c0 .5.6 3.2 1.3 6 .8 2.7 1.4 4.1 1.4 3 0-2.1-2.5-10.7-2.7-9m207 2.1c0 1.1.3 1.4.6.6.3-.7.2-1.6-.1-1.9-.3-.4-.6.2-.5 1.3M578.4 108c0 8 .2 11.2.3 7.2.2-3.9.2-10.5 0-14.5-.1-3.9-.3-.7-.3 7.3m-340.3-9.4c0 1.1.3 1.4.6.6.3-.7.2-1.6-.1-1.9-.3-.4-.6.2-.5 1.3m117.2 7.4c0 4.7.2 6.6.4 4.2.2-2.3.2-6.1 0-8.5-.2-2.3-.4-.4-.4 4.3m60.8-6.4c0 1.1.3 1.4.6.6.3-.7.2-1.6-.1-1.9-.3-.4-.6.2-.5 1.3"/><path d="M440.3 105.5c0 2.2.2 3 .4 1.7.2-1.2.2-3 0-4-.3-.9-.5.1-.4 2.3M213.2 107c0 1.4.2 1.9.5 1.2.2-.6.2-1.8 0-2.5-.3-.6-.5-.1-.5 1.3m200.9-.4c0 1.1.3 1.4.6.6.3-.7.2-1.6-.1-1.9-.3-.4-.6.2-.5 1.3m-108.8 4.9c0 3.3.2 4.5.4 2.7s.2-4.5 0-6-.4 0-.4 3.3m403.9 17.7c-.2 20.6-.1 21.9 1.8 23.8 1.1 1.1 2.9 2 4 2 1.4 0 2 .7 2 2.3 0 5 5.5 6.3 9.5 2.2 2.5-2.4 2.5-2.7 2.5-19 0-16.5 0-16.6 2.2-16.3 1.4.2 2.6 1.5 3.5 3.8 1.2 3.2 1.3 3.2.7.5-1.2-6.2-4.6-10.7-9.6-12.6L721 114v16.5c0 9-.4 17.5-1 18.9-1.1 2.9-5.4 4.5-7.9 2.9-1.4-.9-1.7-4.3-2.1-22.9l-.6-21.9zm111.2-7.7c0 7.7.2 10.7.3 6.7.2-4 .2-10.3 0-14s-.3-.4-.3 7.3m-145 2c0 8.2.2 11.5.3 7.2.2-4.3.2-11 0-15-.1-4-.3-.5-.3 7.8M214.2 111c-.1.8.8 5.3 1.8 10 1.1 4.7 1.7 6.5 1.4 4-.6-5.2-3.1-16.2-3.2-14m315.8.5c-.8 1-3.7 1.5-9.8 1.7l-8.6.3.3 15.5c.1 8.5.5 15.9.8 16.4s4.8.6 9.9.4c10.1-.6 13.4.5 13.4 4.3 0 3.3-5.6 4.9-17 4.9-10.1 0-13.3-.8-15.7-3.9-.7-.9-1.3-1.1-1.3-.5 0 1.3 4.3 5.4 5.7 5.4.7 0 1.4.8 1.8 1.9.3 1 1.5 2.7 2.6 3.7 1.8 1.6 3.5 1.8 15.2 1.6 14.1-.4 16.7-1.2 16.7-5.6 0-2.9-1.1-4.3-4.3-5.5-1.5-.6-2.7-1.7-2.7-2.4s-1.1-2.4-2.4-3.6c-2.1-2-3.3-2.3-8.3-2l-5.8.4-.3-11.3-.3-11.2h7c7.7 0 11.8-1.3 12.6-4.1.8-2.5-1.1-5.8-4.1-6.9-3.4-1.3-3.9-1.3-5.4.5m-88.8 2.5c0 1.9.2 2.7.5 1.7.2-.9.2-2.5 0-3.5-.3-.9-.5-.1-.5 1.8m-29.1-.4c0 1.1.3 1.4.6.6.3-.7.2-1.6-.1-1.9-.3-.4-.6.2-.5 1.3m-57.7 15.9c0 6 .1 8.4.3 5.2s.2-8.1 0-11-.3-.3-.3 5.8m55.7-8.9c0 1.1.3 1.4.6.6.3-.7.2-1.6-.1-1.9-.3-.4-.6.2-.5 1.3M304.3 130c0 4.7.2 6.6.4 4.2.2-2.3.2-6.1 0-8.5-.2-2.3-.4-.4-.4 4.3m104.8-5.4c0 1.1.3 1.4.6.6.3-.7.2-1.6-.1-1.9-.3-.4-.6.2-.5 1.3m170.2 6.4c0 3 .2 4.3.4 2.7.2-1.5.2-3.9 0-5.5-.2-1.5-.4-.2-.4 2.8m-171.2-2.4c0 1.1.3 1.4.6.6.3-.7.2-1.6-.1-1.9-.3-.4-.6.2-.5 1.3m-190 3c0 1.1.3 1.4.6.6.3-.7.2-1.6-.1-1.9-.3-.4-.6.2-.5 1.3m189 1c0 1.1.3 1.4.6.6.3-.7.2-1.6-.1-1.9-.3-.4-.6.2-.5 1.3m13.4-.4c-.9 2.6-2.5 13.3-2.5 16.4 0 5.4-6.9 8.6-10.1 4.7-.8-.9-1.7-4.1-2-7.2l-.6-5.6-.1 5c-.2 6 1.5 9.9 4.6 10.3 1.4.2 2.7 1.5 3.7 3.7 1.8 4.5 5.6 5.6 9.3 2.8 1.5-1.1 2.8-2.6 2.9-3.4s.7-5.3 1.3-10.2l1.2-8.7h16.7l.4 3.2c.2 1.8.2.4 0-3.1-.3-3.6-.7-7-1-7.8-.7-1.8-23.2-1.9-23.8-.1m315.7.8c0 .8.4 2.6.8 4 .6 2 .8 2.1.8.5 0-1.1-.3-2.9-.8-4-.5-1.2-.8-1.4-.8-.5m-517.1 2.6c0 1.1.3 1.4.6.6.3-.7.2-1.6-.1-1.9-.3-.4-.6.2-.5 1.3m187.1 1.9c0 1.6.2 2.2.5 1.2.2-.9.2-2.3 0-3-.3-.6-.5.1-.5 1.8m-186.1 2.1c0 1.1.3 1.4.6.6.3-.7.2-1.6-.1-1.9-.3-.4-.6.2-.5 1.3m360.1.4c0 1.4.2 1.9.5 1.2.2-.6.2-1.8 0-2.5-.3-.6-.5-.1-.5 1.3m158 2.5c0 1.6.2 2.2.5 1.2.2-.9.2-2.3 0-3-.3-.6-.5.1-.5 1.8m-517 1c0 1.1.3 2.9.8 4 1.1 2.5 1.1-.1 0-3.5-.6-2-.8-2.1-.8-.5m133.9.1c0 1.1.3 1.4.6.6.3-.7.2-1.6-.1-1.9-.3-.4-.6.2-.5 1.3m146 4c0 1.1.3 1.4.6.6.3-.7.2-1.6-.1-1.9-.3-.4-.6.2-.5 1.3m238 0c0 1.1.3 1.4.6.6.3-.7.2-1.6-.1-1.9-.3-.4-.6.2-.5 1.3m81.1.9c0 1.6.2 2.2.5 1.2.2-.9.2-2.3 0-3-.3-.6-.5.1-.5 1.8m-428.6 1c-1 2.6-7.4 4.6-16.7 5.2-9.6.6-14.2-.5-16-3.9-.6-1.1-1.3-1.7-1.7-1.4-.9 1 12.5 13.5 15.4 14.2 3.2.8 16.2-.3 20.6-1.8 8.4-2.8 9.2-8.4 1.6-10.3-1.7-.5-2.5-1.2-2.1-2.1.3-.8.3-1.4 0-1.4s-.8.7-1.1 1.5"/></g></svg>